<?xml version="1.0" encoding="utf-8"?>
<!-- Generator: Adobe Illustrator 24.0.2, SVG Export Plug-In . SVG Version: 6.00 Build 0)  -->
<svg version="1.1" id="Camada_1" xmlns="http://www.w3.org/2000/svg" xmlns:xlink="http://www.w3.org/1999/xlink" x="0px" y="0px"
	 viewBox="0 0 1080 1080" style="enable-background:new 0 0 1080 1080;" xml:space="preserve">
<style type="text/css">
	.st0{fill:#2D9AA9;}
	.st1{fill:#7F7F7F;}
	.st2{fill:#FFFFFF;}
	.st3{opacity:0.25;}
	.st4{opacity:0.3;fill:#FFFFFF;}
	.st5{opacity:0.3137;fill:#FAFAFA;}
	.st6{opacity:0.3275;fill:#F5F5F5;}
	.st7{opacity:0.3412;fill:#F0F0F0;}
	.st8{opacity:0.3549;fill:#EBEBEB;}
	.st9{opacity:0.3686;fill:#E6E6E6;}
	.st10{opacity:0.3824;fill:#E1E1E1;}
	.st11{opacity:0.3961;fill:#DCDCDC;}
	.st12{opacity:0.4098;fill:#D7D7D7;}
	.st13{opacity:0.4235;fill:#D2D2D2;}
	.st14{opacity:0.4373;fill:#CDCDCD;}
	.st15{opacity:0.451;fill:#C8C8C8;}
	.st16{opacity:0.4647;fill:#C3C3C3;}
	.st17{opacity:0.4784;fill:#BEBEBE;}
	.st18{opacity:0.4922;fill:#B9B9B9;}
	.st19{opacity:0.5059;fill:#B4B4B4;}
	.st20{opacity:0.5196;fill:#AFAFAF;}
	.st21{opacity:0.5333;fill:#AAAAAA;}
	.st22{opacity:0.5471;fill:#A5A5A5;}
	.st23{opacity:0.5608;fill:#A0A0A0;}
	.st24{opacity:0.5745;fill:#9B9B9B;}
	.st25{opacity:0.5882;fill:#969696;}
	.st26{opacity:0.602;fill:#919191;}
	.st27{opacity:0.6157;fill:#8C8C8C;}
	.st28{opacity:0.6294;fill:#878787;}
	.st29{opacity:0.6431;fill:#828282;}
	.st30{opacity:0.6569;fill:#7D7D7D;}
	.st31{opacity:0.6706;fill:#787878;}
	.st32{opacity:0.6843;fill:#737373;}
	.st33{opacity:0.698;fill:#6E6E6E;}
	.st34{opacity:0.7118;fill:#696969;}
	.st35{opacity:0.7255;fill:#646464;}
	.st36{opacity:0.7392;fill:#5F5F5F;}
	.st37{opacity:0.7529;fill:#5A5A5A;}
	.st38{opacity:0.7667;fill:#555555;}
	.st39{opacity:0.7804;fill:#505050;}
	.st40{opacity:0.7941;fill:#4B4B4B;}
	.st41{opacity:0.8078;fill:#464646;}
	.st42{opacity:0.8216;fill:#414141;}
	.st43{opacity:0.8353;fill:#3C3C3C;}
	.st44{opacity:0.849;fill:#373737;}
	.st45{opacity:0.8627;fill:#323232;}
	.st46{opacity:0.8765;fill:#2D2D2D;}
	.st47{opacity:0.8902;fill:#282828;}
	.st48{opacity:0.9039;fill:#232323;}
	.st49{opacity:0.9176;fill:#1E1E1E;}
	.st50{opacity:0.9314;fill:#191919;}
	.st51{opacity:0.9451;fill:#141414;}
	.st52{opacity:0.9588;fill:#0F0F0F;}
	.st53{opacity:0.9725;fill:#0A0A0A;}
	.st54{opacity:0.9863;fill:#050505;}
</style>
<path class="st0" d="M381.6,617.47c10.1-16.42,18.43-30.42,27.26-44.1c3.44-5.33,1.66-9.32-1.04-13.98
	c-28.94-49.99-57.75-100.04-86.59-150.09c-2.3-3.99-4.14-8.18-9.95-8.13c-16.71,0.15-33.42,0.05-52.36,0.05
	c15.68,27.8,29.36,53.94,44.97,78.88c7.35,11.75,13.92,18.91,5.13,29.35c-4.22,5.02-13.11,12.96-16.63,18.6
	c-5.81-1.28-49.72-80.82-69.72-116.48c-4.28-7.62-8.89-11.15-17.92-10.64c-14.18,0.8-28.44,0.21-46.03,0.21
	c41.34,72.9,81.4,143.52,122.83,216.58c17.65-29.26,37.15-50.11,54.75-79.3C352.51,566.85,364.79,588.02,381.6,617.47z"/>
<path class="st0" d="M496.09,420.94c-18.04,30.52-35.73,60.45-53.94,91.26c-4.7,7.96-16.22,7.96-20.92,0
	c-18.19-30.77-35.87-60.69-53.94-91.26c-4.79-8.1,1.05-18.33,10.46-18.33h107.87C495.03,402.61,500.87,412.84,496.09,420.94z"/>
<g>
	<path class="st1" d="M502.03,604.5c-1.6,3.31-3.81,6.06-6.64,8.24c-2.83,2.19-6.16,3.84-10,4.96s-7.95,1.68-12.32,1.68
		c-6.08,0-12.24-1.07-18.48-3.2c-6.24-2.13-12.03-5.28-17.36-9.44l8.64-13.12c4.58,3.42,9.25,6,14,7.76
		c4.75,1.76,9.31,2.64,13.68,2.64c4.16,0,7.38-0.83,9.68-2.48c2.29-1.65,3.44-3.87,3.44-6.64v-0.32c0-1.6-0.51-2.99-1.52-4.16
		c-1.02-1.17-2.4-2.21-4.16-3.12c-1.76-0.9-3.79-1.71-6.08-2.4c-2.29-0.69-4.67-1.41-7.12-2.16c-3.09-0.96-6.21-2.03-9.36-3.2
		c-3.15-1.17-5.98-2.69-8.48-4.56c-2.51-1.87-4.56-4.16-6.16-6.88c-1.6-2.72-2.4-6.1-2.4-10.16v-0.32c0-3.95,0.77-7.52,2.32-10.72
		c1.55-3.2,3.68-5.92,6.4-8.16c2.72-2.24,5.92-3.94,9.6-5.12c3.68-1.17,7.6-1.76,11.76-1.76c5.33,0,10.72,0.85,16.16,2.56
		c5.44,1.71,10.4,4.05,14.88,7.04l-7.68,13.76c-4.05-2.45-8.16-4.4-12.32-5.84c-4.16-1.44-8-2.16-11.52-2.16
		c-3.73,0-6.64,0.8-8.72,2.4c-2.08,1.6-3.12,3.63-3.12,6.08v0.32c0,1.49,0.53,2.8,1.6,3.92c1.07,1.12,2.48,2.13,4.24,3.04
		c1.76,0.91,3.79,1.76,6.08,2.56c2.29,0.8,4.67,1.58,7.12,2.32c3.09,0.96,6.18,2.08,9.28,3.36c3.09,1.28,5.89,2.86,8.4,4.72
		c2.5,1.87,4.56,4.13,6.16,6.8c1.6,2.67,2.4,5.92,2.4,9.76v0.32C504.43,597.3,503.63,601.2,502.03,604.5z"/>
	<path class="st1" d="M575.79,617.78v-10.4c-2.88,3.42-6.56,6.29-11.04,8.64c-4.48,2.34-9.92,3.52-16.32,3.52
		c-4.06,0-7.9-0.56-11.52-1.68c-3.63-1.12-6.8-2.77-9.52-4.96c-2.72-2.19-4.91-4.91-6.56-8.16c-1.65-3.25-2.48-7.01-2.48-11.28
		v-0.32c0-4.58,0.85-8.58,2.56-12c1.71-3.41,4.08-6.24,7.12-8.48s6.67-3.92,10.88-5.04c4.21-1.12,8.77-1.68,13.68-1.68
		c5.12,0,9.46,0.32,13.04,0.96c3.57,0.64,7.01,1.5,10.32,2.56v-2.08c0-5.87-1.79-10.34-5.36-13.44c-3.58-3.09-8.72-4.64-15.44-4.64
		c-4.8,0-9.07,0.48-12.8,1.44c-3.73,0.96-7.52,2.24-11.36,3.84l-5.28-15.52c4.69-2.13,9.49-3.84,14.4-5.12
		c4.9-1.28,10.82-1.92,17.76-1.92c12.58,0,21.92,3.12,28,9.36c6.08,6.24,9.12,15.02,9.12,26.32v50.08H575.79z M576.27,581.94
		c-2.45-0.96-5.36-1.76-8.72-2.4s-6.91-0.96-10.64-0.96c-6.08,0-10.83,1.17-14.24,3.52c-3.42,2.35-5.12,5.71-5.12,10.08v0.32
		c0,4.05,1.57,7.15,4.72,9.28c3.15,2.13,7.01,3.2,11.6,3.2c3.2,0,6.16-0.43,8.88-1.28c2.72-0.85,5.09-2.05,7.12-3.6
		c2.02-1.54,3.6-3.41,4.72-5.6c1.12-2.18,1.68-4.61,1.68-7.28V581.94z"/>
	<path class="st1" d="M673.38,533.3h19.52v84.48h-19.52v-13.25c-2.77,4.09-6.22,7.62-10.37,10.58c-4.15,2.96-9.47,4.44-15.96,4.44
		c-9.57,0-16.97-2.93-22.18-8.8c-5.21-5.87-7.82-13.76-7.82-23.68V533.3h19.52v47.89c0,6.6,1.56,11.68,4.68,15.25
		c3.12,3.56,7.54,5.35,13.25,5.35c5.6,0,10.15-1.83,13.64-5.51c3.49-3.67,5.23-8.8,5.23-15.4V533.3z M645.7,522.74l16.96-26.24
		l17.6,7.84l-19.52,18.4H645.7z"/>
	<path class="st1" d="M780.74,617.78V603.7c-3.09,4.38-6.95,8.11-11.58,11.2s-10.35,4.64-17.16,4.64c-5,0-9.84-0.96-14.53-2.88
		s-8.83-4.77-12.45-8.56c-3.62-3.79-6.54-8.4-8.78-13.84c-2.23-5.44-3.35-11.68-3.35-18.72s1.09-13.28,3.27-18.72
		c2.18-5.44,5.08-10.05,8.7-13.84c3.62-3.79,7.79-6.64,12.53-8.56c4.74-1.92,9.6-2.88,14.6-2.88c6.92,0,12.66,1.5,17.24,4.48
		c4.57,2.99,8.41,6.45,11.5,10.4v-45.44h19.52v116.8H780.74z M779.07,564.34c-1.33-3.3-3.11-6.16-5.34-8.56
		c-2.23-2.4-4.84-4.24-7.81-5.52c-2.98-1.28-6.06-1.92-9.25-1.92c-3.29,0-6.41,0.62-9.33,1.84c-2.92,1.23-5.5,3.02-7.73,5.36
		c-2.23,2.35-3.99,5.2-5.26,8.56c-1.27,3.36-1.91,7.18-1.91,11.44c0,4.16,0.64,7.92,1.91,11.28c1.27,3.36,3.03,6.21,5.26,8.56
		c2.23,2.35,4.81,4.16,7.73,5.44c2.92,1.28,6.04,1.92,9.33,1.92c3.19,0,6.27-0.64,9.25-1.92c2.98-1.28,5.58-3.12,7.81-5.52
		c2.23-2.4,4.01-5.25,5.34-8.56c1.33-3.31,2-7.04,2-11.2S780.4,567.65,779.07,564.34z"/>
	<path class="st1" d="M847.46,598.34c4.37,3.68,9.7,5.52,16,5.52c4.8,0,8.96-0.85,12.48-2.56c3.52-1.71,6.98-4.21,10.4-7.52
		l11.36,10.08c-4.06,4.8-8.88,8.64-14.48,11.52c-5.6,2.88-12.29,4.32-20.08,4.32c-6.08,0-11.76-1.07-17.04-3.2
		c-5.28-2.13-9.87-5.12-13.76-8.96c-3.9-3.84-6.96-8.45-9.2-13.84c-2.24-5.38-3.36-11.38-3.36-18c0-6.08,1.01-11.79,3.04-17.12
		c2.02-5.33,4.88-10,8.56-14c3.68-4,8.02-7.17,13.04-9.52c5.01-2.34,10.56-3.52,16.64-3.52c6.72,0,12.61,1.23,17.68,3.68
		c5.06,2.46,9.28,5.76,12.64,9.92c3.36,4.16,5.89,9.02,7.6,14.56c1.7,5.55,2.56,11.36,2.56,17.44c0,0.86-0.03,1.71-0.08,2.56
		c-0.06,0.85-0.14,1.76-0.24,2.72h-62.08C840.32,589.36,843.09,594.66,847.46,598.34z M882.34,569.62c-0.32-3.09-1.02-6-2.08-8.72
		c-1.07-2.72-2.51-5.07-4.32-7.04c-1.81-1.97-3.98-3.54-6.48-4.72c-2.51-1.17-5.36-1.76-8.56-1.76c-5.98,0-10.91,2.05-14.8,6.16
		c-3.9,4.11-6.27,9.47-7.12,16.08H882.34z"/>
</g>
<g>
	<path class="st1" d="M275.68,675.91l0.85-1.17c2.83,2.16,5.98,3.28,9.49,3.28c5.71,0,9.58-3.24,9.58-9.58v-4.09
		c-1.75,3.46-5.31,6.07-9.9,6.07c-5.9,0-11.07-4.59-11.07-10.71v-0.09c0-6.16,5.17-10.75,11.07-10.75c4.59,0,8.14,2.61,9.9,5.98
		v-5.44h1.48v19.21c0,3.33-1.08,5.98-2.92,7.83c-1.94,1.93-4.81,2.97-8.14,2.97C282.21,679.42,278.79,678.25,275.68,675.91z
		 M295.75,659.71v-0.09c0-5.26-4.63-9.36-9.9-9.36c-5.31,0-9.63,3.96-9.63,9.31v0.09c0,5.27,4.36,9.36,9.63,9.36
		C291.12,669.02,295.75,664.97,295.75,659.71z"/>
	<path class="st1" d="M320.32,660.74v-0.09c0-6.66,4.59-11.79,10.84-11.79c6.84,0,10.39,5.85,10.39,11.92c0,0.23,0,0.32,0,0.5H321.9
		c0.27,6.17,4.63,9.99,9.72,9.99c3.51,0,6.34-1.85,8.15-4.19l1.08,0.86c-2.07,2.7-5.13,4.68-9.27,4.68
		C325.45,672.62,320.32,667.99,320.32,660.74z M339.98,659.98c-0.22-4.95-3.24-9.76-8.91-9.76c-5.13,0-8.91,4.18-9.18,9.76H339.98z"
		/>
	<path class="st1" d="M362.44,669.16l0.85-1.13c2.52,1.98,5.53,3.1,8.46,3.1c3.64,0,6.48-1.93,6.48-4.72v-0.09
		c0-3.2-3.42-4.18-6.88-5.13c-4.23-1.21-7.87-2.38-7.87-6.17v-0.09c0-3.38,3.1-5.94,7.74-5.94c2.61,0,5.58,0.9,7.96,2.52l-0.81,1.21
		c-2.16-1.53-4.81-2.38-7.2-2.38c-3.73,0-6.21,1.94-6.21,4.46v0.09c0,2.83,3.19,3.87,6.88,4.91c4.14,1.13,7.87,2.43,7.87,6.39v0.09
		c0,3.73-3.51,6.21-8.05,6.21C368.43,672.49,364.92,671.23,362.44,669.16z"/>
	<path class="st1" d="M403.93,666.28v-15.57h-3.46v-1.3h3.46v-7.61h1.44v7.61h8.23v1.3h-8.23v15.43c0,3.33,1.75,4.99,4.72,4.99
		c1.13,0,2.25-0.27,3.42-0.81v1.39c-1.13,0.54-2.29,0.77-3.55,0.77C406.32,672.49,403.93,670.37,403.93,666.28z"/>
	<path class="st1" d="M434.53,665.69v-0.09c0-4.72,4.27-7.29,10.03-7.29c3.15,0,5.89,0.54,8.1,1.26v-1.53c0-5.13-3.06-7.65-8.1-7.65
		c-2.79,0-5.13,0.77-7.38,1.89l-0.54-1.26c2.52-1.21,5-1.98,8.01-1.98c3.1,0,5.53,0.81,7.2,2.47c1.44,1.49,2.25,3.65,2.25,6.43
		v14.13h-1.44v-4.72c-1.17,2.47-4.32,5.26-9.54,5.26C438.76,672.62,434.53,670.28,434.53,665.69z M452.71,663.71v-2.79
		c-2.21-0.72-4.81-1.26-8.19-1.26c-5,0-8.46,2.12-8.46,5.85v0.09c0,3.73,3.38,5.67,7.15,5.67
		C448.7,671.27,452.71,667.76,452.71,663.71z M438.9,645.08c0.67-2.88,1.89-3.87,3.46-3.87c1.8,0,4.27,2.34,5.8,2.34
		c1.08,0,1.75-0.63,2.43-2.61l0.99,0.22c-0.67,2.88-1.89,3.83-3.46,3.83c-1.8,0-4.27-2.29-5.8-2.29c-1.08,0-1.75,0.58-2.43,2.61
		L438.9,645.08z"/>
	<path class="st1" d="M476.83,660.83v-0.09c0-6.34,4.81-11.88,11.79-11.88c6.93,0,11.7,5.44,11.7,11.79v0.09
		c0,6.34-4.77,11.88-11.74,11.88C481.64,672.62,476.83,667.18,476.83,660.83z M498.79,660.79v-0.09c0-5.71-4.36-10.48-10.26-10.48
		c-5.98,0-10.13,4.77-10.13,10.48v0.09c0,5.71,4.32,10.49,10.21,10.49C494.6,671.27,498.79,666.5,498.79,660.79z"/>
	<path class="st1" d="M550.76,669.16l0.85-1.13c2.52,1.98,5.53,3.1,8.46,3.1c3.64,0,6.48-1.93,6.48-4.72v-0.09
		c0-3.2-3.42-4.18-6.88-5.13c-4.23-1.21-7.87-2.38-7.87-6.17v-0.09c0-3.38,3.1-5.94,7.74-5.94c2.61,0,5.58,0.9,7.96,2.52l-0.81,1.21
		c-2.16-1.53-4.81-2.38-7.2-2.38c-3.73,0-6.21,1.94-6.21,4.46v0.09c0,2.83,3.19,3.87,6.88,4.91c4.14,1.13,7.87,2.43,7.87,6.39v0.09
		c0,3.73-3.51,6.21-8.05,6.21C556.75,672.49,553.24,671.23,550.76,669.16z"/>
	<path class="st1" d="M589.91,660.74v-0.09c0-6.66,4.59-11.79,10.84-11.79c6.84,0,10.39,5.85,10.39,11.92c0,0.23,0,0.32,0,0.5
		h-19.66c0.27,6.17,4.63,9.99,9.72,9.99c3.51,0,6.34-1.85,8.15-4.19l1.08,0.86c-2.07,2.7-5.13,4.68-9.27,4.68
		C595.04,672.62,589.91,667.99,589.91,660.74z M609.58,659.98c-0.22-4.95-3.24-9.76-8.91-9.76c-5.13,0-8.91,4.18-9.18,9.76H609.58z"
		/>
	<path class="st1" d="M634.15,649.41h1.44v5.08c0.99-2.65,3.69-5.62,7.74-5.62c4.54,0,7.02,2.74,8.01,5.98
		c1.13-2.97,4-5.98,8.14-5.98c5.17,0,8.59,3.51,8.59,9.67v13.54h-1.44v-13.41c0-5.49-2.88-8.46-7.24-8.46
		c-3.87,0-7.56,3.51-7.56,8.64v13.23h-1.44v-13.45c0-5.4-2.92-8.42-7.2-8.42c-3.96,0-7.6,3.78-7.6,8.68v13.18h-1.44V649.41z"/>
	<path class="st1" d="M721.99,649.41h1.44v6.25c1.57-3.78,5.08-6.79,10.03-6.79c6.12,0,11.2,4.9,11.2,11.83v0.09
		c0,6.88-5.08,11.83-11.2,11.83c-4.99,0-8.5-2.97-10.03-6.71v13.36h-1.44V649.41z M743.14,660.83v-0.09
		c0-5.98-4.19-10.48-9.81-10.48c-5.58,0-9.99,4.59-9.99,10.44v0.09c0,5.85,4.46,10.44,9.99,10.44
		C739.04,671.23,743.14,666.91,743.14,660.83z"/>
	<path class="st1" d="M766.09,665.69v-0.09c0-4.72,4.27-7.29,10.03-7.29c3.15,0,5.89,0.54,8.1,1.26v-1.53c0-5.13-3.06-7.65-8.1-7.65
		c-2.79,0-5.13,0.77-7.38,1.89l-0.54-1.26c2.52-1.21,5-1.98,8.01-1.98c3.1,0,5.53,0.81,7.2,2.47c1.44,1.49,2.25,3.65,2.25,6.43
		v14.13h-1.44v-4.72c-1.17,2.47-4.32,5.26-9.54,5.26C770.32,672.62,766.09,670.28,766.09,665.69z M784.27,663.71v-2.79
		c-2.21-0.72-4.81-1.26-8.19-1.26c-5,0-8.46,2.12-8.46,5.85v0.09c0,3.73,3.38,5.67,7.15,5.67
		C780.26,671.27,784.27,667.76,784.27,663.71z"/>
	<path class="st1" d="M810.01,649.41h1.44v6.25c1.57-3.78,5.08-6.79,10.03-6.79c6.12,0,11.2,4.9,11.2,11.83v0.09
		c0,6.88-5.08,11.83-11.2,11.83c-4.99,0-8.5-2.97-10.03-6.71v13.36h-1.44V649.41z M831.16,660.83v-0.09
		c0-5.98-4.19-10.48-9.81-10.48c-5.58,0-9.99,4.59-9.99,10.44v0.09c0,5.85,4.46,10.44,9.99,10.44
		C827.06,671.23,831.16,666.91,831.16,660.83z"/>
	<path class="st1" d="M854.42,660.74v-0.09c0-6.66,4.59-11.79,10.84-11.79c6.84,0,10.39,5.85,10.39,11.92c0,0.23,0,0.32,0,0.5H856
		c0.27,6.17,4.63,9.99,9.72,9.99c3.51,0,6.34-1.85,8.15-4.19l1.08,0.86c-2.07,2.7-5.13,4.68-9.27,4.68
		C859.55,672.62,854.42,667.99,854.42,660.74z M874.09,659.98c-0.22-4.95-3.24-9.76-8.91-9.76c-5.13,0-8.91,4.18-9.18,9.76H874.09z"
		/>
	<path class="st1" d="M898.93,639.24h1.49v32.85h-1.49V639.24z"/>
</g>
<g>
	<path class="st2" d="M442.11,410.19h14.94v18.83h19.04v14.62h-19.04v18.93h-14.94v-18.93h-19.04v-14.62h19.04V410.19z"/>
</g>
<g class="st3">
	<polygon class="st4" points="423.74,499.61 387.17,407.68 405.24,400.49 436.59,441.26 458.34,485.84 	"/>
	<path class="st5" d="M423.83,499.88l-36.75-92.17l18.17-7.18l31.77,41.55L458,486.4C457.95,486.5,423.88,499.99,423.83,499.88z"/>
	<path class="st6" d="M423.92,500.16L387,407.75l18.27-7.17l32.2,42.34l20.19,44.04C457.55,487.16,424.01,500.37,423.92,500.16z"/>
	<path class="st7" d="M424.01,500.44l-37.09-92.65l18.36-7.17l32.62,43.13l19.42,43.77C457.15,487.82,424.15,500.75,424.01,500.44z"
		/>
	<path class="st8" d="M424.1,500.71l-37.27-92.9l18.46-7.16l33.05,43.92l18.64,43.51C456.75,488.48,424.29,501.13,424.1,500.71z"/>
	<path class="st9" d="M424.19,500.99l-37.44-93.14l18.56-7.15l33.47,44.71l17.86,43.24C456.35,489.14,424.42,501.51,424.19,500.99z"
		/>
	<path class="st10" d="M424.28,501.26l-37.61-93.38l18.66-7.14l33.9,45.5l17.08,42.97C455.96,489.8,424.56,501.89,424.28,501.26z"/>
	<path class="st11" d="M424.37,501.54l-37.79-93.63l18.75-7.13l34.32,46.29l16.3,42.7C455.56,490.46,424.69,502.28,424.37,501.54z"
		/>
	<path class="st12" d="M424.46,501.82l-37.96-93.87l18.85-7.13l34.74,47.08l15.53,42.43C455.16,491.12,424.83,502.66,424.46,501.82z
		"/>
	<path class="st13" d="M424.55,502.09l-38.13-94.11l18.95-7.12l35.17,47.87l14.75,42.16C454.76,491.78,424.96,503.04,424.55,502.09z
		"/>
	<path class="st14" d="M424.64,502.37l-38.31-94.36l19.04-7.11l35.59,48.65l13.97,41.89C454.37,492.44,425.1,503.42,424.64,502.37z"
		/>
	<path class="st15" d="M424.73,502.65l-38.48-94.6l19.14-7.1l36.02,49.44l13.19,41.62C453.97,493.1,425.23,503.8,424.73,502.65z"/>
	<path class="st16" d="M424.82,502.92l-38.65-94.84l19.24-7.09l36.44,50.23l12.41,41.35C453.57,493.76,425.37,504.18,424.82,502.92z
		"/>
	<path class="st17" d="M424.91,503.2l-38.82-95.09l19.33-7.08l36.87,51.02l11.64,41.08C453.17,494.42,425.5,504.56,424.91,503.2z"/>
	<path class="st18" d="M425,503.48l-39-95.33l19.43-7.08l37.29,51.81l10.86,40.81C452.77,495.08,425.64,504.95,425,503.48z"/>
	<path class="st19" d="M425.09,503.75l-39.17-95.57l19.53-7.07l37.72,52.6l10.08,40.54C452.38,495.74,425.77,505.33,425.09,503.75z"
		/>
	<path class="st20" d="M425.18,504.03l-39.34-95.82l19.62-7.06l38.14,53.39l9.3,40.27C451.98,496.4,425.91,505.71,425.18,504.03z"/>
	<path class="st21" d="M425.27,504.31l-39.52-96.06l19.72-7.05l38.57,54.18l8.52,40C451.58,497.06,426.04,506.09,425.27,504.31z"/>
	<path class="st22" d="M425.36,504.58l-39.69-96.3l19.82-7.04l38.99,54.97l7.75,39.73C451.18,497.72,426.18,506.47,425.36,504.58z"
		/>
	<path class="st23" d="M425.44,504.86l-39.86-96.55l19.92-7.03l39.41,55.75l6.97,39.46C450.79,498.38,426.31,506.85,425.44,504.86z"
		/>
	<path class="st24" d="M425.53,505.14l-40.04-96.79l20.01-7.03l39.84,56.54l6.19,39.19C450.39,499.04,426.45,507.23,425.53,505.14z"
		/>
	<path class="st25" d="M425.62,505.41l-40.21-97.03l20.11-7.02l40.26,57.33l5.41,38.92C449.99,499.7,426.58,507.62,425.62,505.41z"
		/>
	<path class="st26" d="M425.71,505.69l-40.38-97.28l20.21-7.01l40.69,58.12l4.63,38.65C449.59,500.36,426.72,508,425.71,505.69z"/>
	<path class="st27" d="M425.8,505.97l-40.56-97.52l20.3-7l41.11,58.91l3.86,38.38C449.2,501.02,426.85,508.38,425.8,505.97z"/>
	<path class="st28" d="M425.89,506.24l-40.73-97.76l20.4-6.99l41.54,59.7l3.08,38.12C448.8,501.68,426.99,508.76,425.89,506.24z"/>
	<path class="st29" d="M425.98,506.52l-40.9-98l20.5-6.98l41.96,60.49l2.3,37.85C448.4,502.34,427.12,509.14,425.98,506.52z"/>
	<path class="st30" d="M426.07,506.8L385,408.55l20.59-6.98l42.39,61.28l1.52,37.58C448,503,427.26,509.52,426.07,506.8z"/>
	<path class="st31" d="M426.16,507.07l-41.25-98.49l20.69-6.97l42.81,62.07l0.74,37.31C447.6,503.66,427.39,509.91,426.16,507.07z"
		/>
	<path class="st32" d="M426.25,507.35l-41.42-98.73l20.79-6.96l43.24,62.85l-0.03,37.04C447.21,504.32,427.53,510.29,426.25,507.35z
		"/>
	<path class="st33" d="M426.34,507.63l-41.59-98.98l20.88-6.95l43.66,63.64l-0.81,36.77C446.81,504.98,427.66,510.67,426.34,507.63z
		"/>
	<path class="st34" d="M426.43,507.9l-41.77-99.22l20.98-6.94l44.08,64.43l-1.59,36.5C446.41,505.64,427.8,511.05,426.43,507.9z"/>
	<path class="st35" d="M426.52,508.18l-41.94-99.46l21.08-6.94L450.16,467l-2.37,36.23C446.01,506.3,427.93,511.43,426.52,508.18z"
		/>
	<path class="st36" d="M426.61,508.46l-42.11-99.71l21.17-6.93l44.93,66.01l-3.15,35.96C445.62,506.95,428.07,511.81,426.61,508.46z
		"/>
	<path class="st37" d="M426.7,508.73l-42.29-99.95l21.27-6.92l45.36,66.8l-3.92,35.69C445.22,507.61,428.2,512.19,426.7,508.73z"/>
	<path class="st38" d="M426.79,509.01l-42.46-100.19l21.37-6.91l45.78,67.59l-4.7,35.42C444.82,508.27,428.34,512.58,426.79,509.01z
		"/>
	<path class="st39" d="M426.88,509.29l-42.63-100.44l21.47-6.9l46.21,68.38l-5.48,35.15C444.42,508.93,428.47,512.96,426.88,509.29z
		"/>
	<path class="st40" d="M426.97,509.56l-42.81-100.68l21.56-6.89l46.63,69.17l-6.26,34.88C444.02,509.59,428.61,513.34,426.97,509.56
		z"/>
	<path class="st41" d="M427.05,509.84l-42.98-100.92l21.66-6.89l47.06,69.96l-7.04,34.61C443.63,510.25,428.74,513.72,427.05,509.84
		z"/>
	<path class="st42" d="M427.14,510.11l-43.15-101.17l21.76-6.88l47.48,70.74l-7.81,34.34C443.23,510.91,428.88,514.1,427.14,510.11z
		"/>
	<path class="st43" d="M427.23,510.39l-43.33-101.41l21.85-6.87l47.91,71.53l-8.59,34.07C442.83,511.57,429.01,514.48,427.23,510.39
		z"/>
	<path class="st44" d="M427.32,510.67l-43.5-101.65l21.95-6.86l48.33,72.32l-9.37,33.8C442.43,512.23,429.15,514.86,427.32,510.67z"
		/>
	<path class="st45" d="M427.41,510.94l-43.67-101.9l22.05-6.85l48.75,73.11l-10.15,33.53C442.04,512.89,429.28,515.25,427.41,510.94
		z"/>
	<path class="st46" d="M427.5,511.22l-43.84-102.14l22.14-6.84l49.18,73.9l-10.93,33.26C441.64,513.55,429.42,515.63,427.5,511.22z"
		/>
	<path class="st47" d="M427.59,511.5l-44.02-102.38l22.24-6.84l49.6,74.69l-11.7,32.99C441.24,514.21,429.55,516.01,427.59,511.5z"
		/>
	<path class="st48" d="M427.68,511.77l-44.19-102.63l22.34-6.83l50.03,75.48l-12.48,32.72
		C440.84,514.87,429.69,516.39,427.68,511.77z"/>
	<path class="st49" d="M427.77,512.05l-44.36-102.87l22.43-6.82l50.45,76.27l-13.26,32.46
		C440.45,515.53,429.83,516.77,427.77,512.05z"/>
	<path class="st50" d="M427.86,512.33l-44.54-103.11l22.53-6.81l50.88,77.06l-14.04,32.19
		C440.05,516.19,429.96,517.15,427.86,512.33z"/>
	<path class="st51" d="M427.95,512.6l-44.71-103.36l22.63-6.8l51.3,77.84l-14.82,31.92C439.65,516.85,430.1,517.53,427.95,512.6z"/>
	<path class="st52" d="M428.04,512.88l-44.88-103.6l22.72-6.8l51.73,78.63l-15.6,31.65C439.25,517.51,430.23,517.92,428.04,512.88z"
		/>
	<path class="st53" d="M428.13,513.16l-45.06-103.84l22.82-6.79l52.15,79.42l-16.37,31.38C438.85,518.17,430.37,518.3,428.13,513.16
		z"/>
	<path class="st54" d="M428.22,513.43l-45.23-104.09l22.92-6.78l52.58,80.21l-17.15,31.11C438.46,518.83,430.5,518.68,428.22,513.43
		z"/>
	<path d="M428.31,513.71l-45.4-104.33l23.02-6.77l53,81l-17.93,30.84C438.06,519.49,430.64,519.06,428.31,513.71z"/>
</g>
<path class="st0" d="M367.16,419.96l54.85,92.87c4.45,7.54,15.36,7.53,19.81-0.01l10.16-17.23c2.14-3.62,2.12-8.12-0.03-11.73
	l-45.17-75.65c-2.08-3.48-5.82-5.6-9.87-5.6h-19.83C368.16,402.61,362.64,412.29,367.16,419.96z"/>
</svg>
