<?xml version="1.0" encoding="utf-8"?>
<!-- Generator: Adobe Illustrator 24.0.1, SVG Export Plug-In . SVG Version: 6.00 Build 0)  -->
<svg version="1.1" id="Layer_1" xmlns="http://www.w3.org/2000/svg" xmlns:xlink="http://www.w3.org/1999/xlink" x="0px" y="0px"
	 viewBox="0 0 2840 2000" style="enable-background:new 0 0 2840 2000;" xml:space="preserve">
<style type="text/css">
	.st0{fill-rule:evenodd;clip-rule:evenodd;fill:#C2E5F6;}
	.st1{fill-rule:evenodd;clip-rule:evenodd;fill:url(#SVGID_1_);}
	.st2{fill-rule:evenodd;clip-rule:evenodd;fill:#11639D;}
	.st3{fill-rule:evenodd;clip-rule:evenodd;fill:url(#SVGID_2_);}
	.st4{fill-rule:evenodd;clip-rule:evenodd;fill:#1C87D5;}
	.st5{fill-rule:evenodd;clip-rule:evenodd;fill:#A1D5F1;}
	.st6{fill-rule:evenodd;clip-rule:evenodd;fill:#CFECFA;}
	.st7{fill-rule:evenodd;clip-rule:evenodd;fill:#B2DCF1;}
	.st8{fill-rule:evenodd;clip-rule:evenodd;fill:#A5D6EF;}
	.st9{fill-rule:evenodd;clip-rule:evenodd;fill:#C3E4F4;}
	.st10{fill-rule:evenodd;clip-rule:evenodd;fill:#64B8D5;}
	.st11{fill-rule:evenodd;clip-rule:evenodd;fill:#94CFE5;}
	.st12{fill-rule:evenodd;clip-rule:evenodd;fill:url(#SVGID_3_);}
	.st13{fill-rule:evenodd;clip-rule:evenodd;fill:#DAEAFA;}
	.st14{fill-rule:evenodd;clip-rule:evenodd;fill:url(#SVGID_4_);}
	.st15{fill-rule:evenodd;clip-rule:evenodd;fill:url(#SVGID_5_);}
	.st16{fill-rule:evenodd;clip-rule:evenodd;fill:#E7A376;}
	.st17{fill-rule:evenodd;clip-rule:evenodd;fill:url(#SVGID_6_);}
	.st18{fill-rule:evenodd;clip-rule:evenodd;fill:#F0B186;}
	.st19{fill-rule:evenodd;clip-rule:evenodd;fill:#FFFFFF;}
	.st20{fill-rule:evenodd;clip-rule:evenodd;fill:#DFF4FF;}
	.st21{fill-rule:evenodd;clip-rule:evenodd;fill:#EFFAFF;}
	.st22{fill-rule:evenodd;clip-rule:evenodd;fill:#C8E8F8;}
	.st23{fill-rule:evenodd;clip-rule:evenodd;fill:#000002;}
	.st24{fill-rule:evenodd;clip-rule:evenodd;fill:#171E29;}
	.st25{fill-rule:evenodd;clip-rule:evenodd;fill:#2B374A;}
	.st26{opacity:0.5;fill-rule:evenodd;clip-rule:evenodd;fill:#566E93;}
	.st27{opacity:0.5;fill-rule:evenodd;clip-rule:evenodd;fill:#C8E8F8;}
	.st28{fill-rule:evenodd;clip-rule:evenodd;fill:url(#SVGID_7_);}
	.st29{opacity:0.5;fill-rule:evenodd;clip-rule:evenodd;fill:#1C8EAA;}
	.st30{fill-rule:evenodd;clip-rule:evenodd;fill:url(#SVGID_8_);}
	.st31{fill-rule:evenodd;clip-rule:evenodd;fill:url(#SVGID_9_);}
	.st32{fill-rule:evenodd;clip-rule:evenodd;fill:url(#SVGID_10_);}
	.st33{opacity:0.3;fill-rule:evenodd;clip-rule:evenodd;fill:url(#SVGID_11_);}
	.st34{fill-rule:evenodd;clip-rule:evenodd;fill:#B7E0F5;}
	.st35{fill-rule:evenodd;clip-rule:evenodd;fill:#04304F;}
	.st36{fill-rule:evenodd;clip-rule:evenodd;fill:url(#SVGID_12_);}
	.st37{opacity:0.3;fill-rule:evenodd;clip-rule:evenodd;fill:#04304F;}
	.st38{fill-rule:evenodd;clip-rule:evenodd;fill:url(#SVGID_13_);}
	.st39{fill-rule:evenodd;clip-rule:evenodd;fill:url(#SVGID_14_);}
	.st40{opacity:0.3;fill-rule:evenodd;clip-rule:evenodd;fill:#1466A0;}
	.st41{fill-rule:evenodd;clip-rule:evenodd;fill:url(#SVGID_15_);}
	.st42{fill-rule:evenodd;clip-rule:evenodd;fill:url(#SVGID_16_);}
	.st43{fill-rule:evenodd;clip-rule:evenodd;fill:url(#SVGID_17_);}
	.st44{fill-rule:evenodd;clip-rule:evenodd;fill:#2FAAC8;}
	.st45{fill-rule:evenodd;clip-rule:evenodd;fill:#38251B;}
	.st46{fill-rule:evenodd;clip-rule:evenodd;fill:#422D22;}
	.st47{fill-rule:evenodd;clip-rule:evenodd;fill:#EA9F6F;}
	.st48{fill-rule:evenodd;clip-rule:evenodd;fill:#AA6F48;}
	.st49{fill-rule:evenodd;clip-rule:evenodd;fill:url(#SVGID_18_);}
	.st50{fill-rule:evenodd;clip-rule:evenodd;fill:url(#SVGID_19_);}
	.st51{fill-rule:evenodd;clip-rule:evenodd;fill:#1A68AF;}
	.st52{fill-rule:evenodd;clip-rule:evenodd;fill:#298AE5;}
	.st53{fill-rule:evenodd;clip-rule:evenodd;fill:#237CCE;}
	.st54{fill-rule:evenodd;clip-rule:evenodd;fill:#12549D;}
	.st55{fill-rule:evenodd;clip-rule:evenodd;fill:url(#SVGID_20_);}
	.st56{fill-rule:evenodd;clip-rule:evenodd;fill:#1863A8;}
	.st57{fill-rule:evenodd;clip-rule:evenodd;fill:#2989E3;}
	.st58{fill-rule:evenodd;clip-rule:evenodd;fill:#14548E;}
	.st59{fill-rule:evenodd;clip-rule:evenodd;fill:url(#SVGID_21_);}
	.st60{fill-rule:evenodd;clip-rule:evenodd;fill:#269CBA;}
	.st61{fill-rule:evenodd;clip-rule:evenodd;fill:#31ACCB;}
	.st62{fill-rule:evenodd;clip-rule:evenodd;fill:#FBDDC4;}
	.st63{fill-rule:evenodd;clip-rule:evenodd;fill:#1989A5;}
	.st64{fill-rule:evenodd;clip-rule:evenodd;fill:#F6C8A2;}
</style>
<g>
	<g>
		<path class="st0" d="M2207.26,1834.29L995.79,1137.78c-9.39-4.49-22.82-8.2-32.38-3.43c-8.71,4.35-23.07,13.31-29.41,16.8
			c-4.82,2.65-21.55,12.31-11.13,18.2c30.66,17.33,1186.38,682.36,1217.51,699.97c5.89,3.33,14.5,4.67,23.54,4.12
			c9-0.55,18.24-2.98,25.5-7.04c5.17-2.9,10.26-5.75,15.27-8.56c6.75-3.78,10.33-8.36,10.69-12.65
			C2215.72,1840.99,2213.02,1837.04,2207.26,1834.29z"/>
		<g>
			<g>
				<g>
					<linearGradient id="SVGID_1_" gradientUnits="userSpaceOnUse" x1="2266.7292" y1="890.9508" x2="1422.145" y2="944.789">
						<stop  offset="0" style="stop-color:#105B91"/>
						<stop  offset="1" style="stop-color:#0A3C5F"/>
					</linearGradient>
					<path class="st1" d="M2120.63,675.04c48.83,28.13,87.13,96.21,86.98,150.64l-2.08,926.64c-0.08,27.49-9.8,46.83-25.47,55.94
						l-22.31,13.42c-92.45-43.44-55.71-453.76-61.48-590.03l26.19-356.49c-22.02-38.48-106.74-72.06-86.97-150.65l-819.46-447.68
						l-247.46-168.3h0h0c1.06-6.34-6.68-37.61,0.22-41.79c7.7-4.67,15.3-9.34,22.85-13.77c19.34-11.44,43.98-4.37,62.08,6.07l0,0
						l0,0L2120.63,675.04z"/>
					<path class="st2" d="M943.47,122.62c0.15-55.33,39.34-77.72,87.54-49.89l1066.92,615.98c48.14,27.8,87.13,95.32,86.97,150.65
						l-2.07,926.63c-0.16,55.32-39.4,77.69-87.55,49.89L1028.36,1199.9c-48.2-27.83-87.13-95.32-86.97-150.65L943.47,122.62z"/>
					<linearGradient id="SVGID_2_" gradientUnits="userSpaceOnUse" x1="1608.3728" y1="616.8584" x2="1510.9561" y2="1322.1583">
						<stop  offset="0" style="stop-color:#31ADCC"/>
						<stop  offset="0.9951" style="stop-color:#198AA6"/>
					</linearGradient>
					<path class="st3" d="M960.3,144.94c0.15-53.83,38.27-75.61,85.16-48.53L2083.4,695.65c46.84,27.05,84.76,92.73,84.61,146.56
						l-2.02,901.46c-0.15,53.82-38.33,75.58-85.17,48.53l-1037.93-599.25c-46.89-27.08-84.76-92.73-84.61-146.55L960.3,144.94z"/>
					<g>
						<path class="st2" d="M945.3,103.44c8.26-40.97,43.54-55.07,85.71-30.72L2097.93,688.7c42.12,24.33,77.23,79.05,85.25,129.42
							L945.3,103.44z"/>
						<g>
							<path class="st4" d="M1082.87,138.43c-7.19-4.15-13.03-0.82-13.05,7.44c-0.02,8.26,5.78,18.32,12.97,22.47
								c7.18,4.15,13.03,0.82,13.05-7.45C1095.86,152.64,1090.06,142.58,1082.87,138.43z"/>
							<path class="st4" d="M1039.89,110.37c-7.19-4.15-13.03-0.82-13.05,7.44c-0.02,8.26,5.78,18.32,12.97,22.47
								c7.18,4.15,13.03,0.82,13.05-7.45C1052.88,124.58,1047.07,114.52,1039.89,110.37z"/>
							<path class="st4" d="M1000.52,86.85c-7.19-4.15-13.03-0.82-13.05,7.44c-0.02,8.26,5.78,18.32,12.97,22.47
								c7.18,4.15,13.03,0.82,13.05-7.45C1013.51,101.05,1007.7,90.99,1000.52,86.85z"/>
						</g>
					</g>
				</g>
				<g>
					<g>
						<path class="st5" d="M1700.54,955.78c-0.11,36.51-25.96,51.28-57.76,32.92c-337.73-193.71-213.04-120.33-550.74-314.02
							c-31.77-18.35-57.49-62.89-57.39-99.4l1.37-35.11c0.1-36.51,25.99-51.26,57.76-32.92
							c337.73,193.71,213.05,120.32,550.73,314.02c31.81,18.36,57.49,62.9,57.39,99.4L1700.54,955.78z"/>
						<g>
							<path class="st6" d="M1193.84,667.6l457.79,264.11c3.62,2.09,6.53,0.43,6.53-3.73l0.04-14.78c0.01-4.08-2.88-9.16-6.49-11.24
								l-457.78-264.11c-3.61-2.08-6.53-0.37-6.54,3.72l-0.03,14.78C1187.34,660.51,1190.23,665.52,1193.84,667.6z"/>
							<path class="st6" d="M1196.19,619.96l457.79,264.11c3.62,2.09,6.53,0.43,6.53-3.73l0.04-14.78
								c0.01-4.08-2.88-9.16-6.49-11.24L1196.28,590.2c-3.61-2.08-6.53-0.37-6.54,3.72l-0.04,14.78
								C1189.68,612.86,1192.57,617.87,1196.19,619.96z"/>
							<path class="st6" d="M1193.84,715.55l261.31,150.33c3.62,2.09,6.53,0.43,6.53-3.73l0.04-14.78
								c0.01-4.08-2.88-9.16-6.49-11.24l-261.31-150.33c-3.61-2.08-6.53-0.37-6.54,3.72l-0.03,14.78
								C1187.34,708.45,1190.23,713.46,1193.84,715.55z"/>
						</g>
						<g>
							<path class="st6" d="M1112.22,674.96c35.26,20.36,63.93,4,64.04-36.5c0.12-40.52-28.37-89.85-63.63-110.22
								c-35.25-20.35-63.93-4.01-64.04,36.5C1048.47,605.25,1076.96,654.6,1112.22,674.96z"/>
							<g>
								<path class="st7" d="M1126.53,635.63c-0.37,7.71,1.58,12.74,4.19,17.52c3.16,5.8,8.43,11.01,16.2,18.1
									c4.03,3.68,7.07,6.51,9.39,8.89c-11.49,5.93-27.01,4.68-44.09-5.18c-16.81-9.71-32.08-26.01-43.45-44.8
									c2.41,0.27,5.6,0.96,9.91,1.98c7.85,1.85,13.16,2.7,16.36,0.54c2.44-1.65,4.1-4.79,4.06-11.76c0-0.53,0-1.07-0.02-1.64
									c6.69,4.85,10.18,7.52,13.68,9.67C1116.25,631.1,1119.77,632.76,1126.53,635.63z"/>
								<path class="st5" d="M1131.39,654.33c3.23,5.34,8.28,10.31,15.52,16.92c4.03,3.68,7.07,6.51,9.39,8.89
									c-11.49,5.93-27.02,4.68-44.09-5.18c-16.81-9.71-32.08-26.01-43.45-44.8c2.41,0.27,5.6,0.96,9.91,1.98
									c6.74,1.59,11.58,2.43,14.86,1.29c2.21,8.87,11.11,17.67,19.74,22.46C1121.9,660.66,1130.25,661.44,1131.39,654.33z"/>
								<path class="st8" d="M1134.86,659.1c-3.4,8.56-12.75,7.49-22.08,1.7c-9.35-5.81-18.67-16.38-22.03-26.87
									c1.25-0.35,2.51-0.71,3.75-1.07c1.49,5.07,9.08,13.86,17.03,19.47c7.93,5.6,16.21,8.06,19.15,0.56
									C1132.08,654.96,1133.47,657.04,1134.86,659.1z"/>
								<path class="st9" d="M1131.59,611.58c0.11-0.2,0.22-0.4,0.33-0.57c1.19-1.8,2.67-1.56,3.48-0.27
									c2.71,4.31-0.02,7.96-0.99,10.21c-0.54,2.44-0.04,5.25-2.23,4.89c-1.07-0.17-1.7-1.4-2.67-4.54
									c0.15-3.28,0.29-6.56,0.43-9.85C1130.51,611.5,1131.05,611.54,1131.59,611.58z"/>
								<path class="st9" d="M1094.39,590.12c-0.1-0.32-0.21-0.64-0.32-0.94c-1.2-3.19-2.68-4.67-3.52-4.31
									c-2.73,1.17-0.01,7.99,0.97,11.38c0.53,3.06,0.02,5.29,2.23,7.48c1.07,1.06,1.7,0.55,2.68-1.47
									c-0.13-3.45-0.26-6.89-0.39-10.35C1095.49,591.3,1094.95,590.71,1094.39,590.12z"/>
								<path class="st9" d="M1106.16,630.81c-1.11-1.6-2.05-3.39-3.53-5.82c-1.89-3.09-4.96-6.87-5.96-9.93
									c-1.17-3.58-1-7.2-1.18-10.95c-0.12-2.63-1.12-5.64-1.6-9.19c-0.25-1.86-0.4-4.44-0.44-7.01c-0.04-1.99-0.02-4,0.08-5.91
									c0.68-13.31,3.33-24.9,17.72-16.76l0,0c0.22,0.13,0.45,0.26,0.68,0.4c0.25,0.16,0.49,0.3,0.74,0.45
									c0.14,0.09,0.26,0.16,0.39,0.24c0.13,0.08,0.27,0.16,0.4,0.22c0.25,0.13,0.49,0.27,0.74,0.41c0.23,0.13,0.45,0.26,0.68,0.39
									l0,0c14.35,8.51,16.93,23.11,17.56,37.12c0.09,2,0.11,4.04,0.07,5.97c-0.06,2.51-0.21,4.9-0.47,6.47
									c-0.49,2.98-1.51,4.82-1.65,7.3c-0.19,3.54-0.02,7.35-1.21,9.55c-1.02,1.89-4.08,2.14-5.97,3.06
									c-1.48,0.72-2.43,1.43-3.54,1.75c-0.71,0.21-1.5,0.26-2.62,0.03c-1.48-0.32-6.78-3.36-8.27-4.75
									C1107.68,632.81,1106.89,631.85,1106.16,630.81z"/>
								<g>
									<path class="st5" d="M1114.48,580.79c4.76,3.99,4.93,2.54,7.28,4.06c1.45,0.91,2.19,2.63,4.63,3.67
										c0.86,6.96,0.79,7.51,4.52,14.63c0.02,1.52,0.05,3.03,0.09,4.53c0.07,2.37,0.11,4.43,0.13,6.2
										c0.04,4.25-0.9,7.73-0.58,11.25c1.01-4.24,2.08-6.49,2.47-11.39c0.09-1.09-0.2-2.02,0.08-3.12
										c0.56-2.26,0.31-4.98-0.12-6.57c0.11-1.21,1.09-0.68,1.24-1.46c0.15-0.77-0.41-1.99-0.39-2.86
										c0.03-0.87,0.66-1.32,0.52-2.27c-0.19-1.25-0.38-2.51-0.58-3.78c1.15-1.22,2.02-2.23,3.04-3.65
										c-0.37-0.46-0.73-0.92-1.1-1.39c1.44-4.14-0.95-5.04-0.94-6.76c0.01-1.21,0.92-0.67,1.35-0.03
										c0.78,1.15,1.27,3.52,1.34,3.68c0.79-6.78-4.02-10.9-8.84-15.53c-1.85-7.97-8.63-11.58-13.05-12.3
										c-4.74-8.13-10.96-8.82-15.49-6.8c-4.38-0.65-7.23-1.4-8.31,7.28c-0.19-2.52-0.06-4.38,0.19-6.73
										c-0.68,2.37-1.1,4.28-0.81,7.21c-1.62-2.27-1.63-2.51-2.85-5.04c0.2,3.19,0.4,3.85,1.34,7.25
										c-0.45-0.51-0.9-1.02-1.36-1.54c0.38,2.48,0.33,2.93,1.16,5.56c-0.69-0.69-1.38-1.39-2.07-2.09
										c0.72,5.08,1,6.76,3.39,10.75c0.09,2.33,0.24,5.76,0.65,7.92c0.41,2.17,0.71,3.53,1.13,5.11c0.42,1.58,0.85,2.94,1.02,4.05
										c0.17,1.11,0.5,1.97,0.52,2.86c0.14,6.5-0.5,5.79,1.99,12.92c-0.13-6-1.34-5.89-1.16-13.04c0.02-0.84-0.46-5.33-0.18-8.29
										c0.17-1.74,1.15-1.54,1.18-3.5c0.07-6.53-2.03-11.78,2.04-9.66c4.52,2.35,5.96,5.76,9.43,3.5
										C1111.29,579.75,1112.27,580.11,1114.48,580.79z"/>
									<path class="st5" d="M1106.49,561.13c-0.93-6.57,0.13-9.05,2.31-9.07c1.66-0.02,3.79,1.1,7.52,4.7
										c-0.98,0.05-1.89,0.32-2.66,0.83c0.09-0.42,0.17-0.84,0.24-1.26c-4.48,3.72-4.1,8.2-5.74,14.98
										c-0.45,1.84-0.68,2.12,0.42,2.25c0.27,0.03,0.53,0.7,0.86,1.17c0.62,0.89,1.22,1.73,2.68,0.47
										c1.99-1.71,3.72-4.94,4.48-7.55c1.02-3.53,1.45-6.82,4.1-6.41c2.52,0.39,5.65,2.84,7.72,6.31
										c-2.53-7.26-7.95-11.01-12.09-10.79c-2.62-4.01-4.96-6.36-6.96-7.3c-5.5-2.6-7.93,4.38-6.61,12.91
										c0.29,1.86,0.83,3.81,1.49,7.06c0.22,1.05,0.45,2.36,0.69,3.76c1.07,0.1,1.87-0.59,2.19-1.67
										C1107.94,568.8,1106.76,563.06,1106.49,561.13L1106.49,561.13z M1126.96,587.46c5.25,2.9,6.98-2.7,7.25-7.73
										c0,2.15,3.41,5.52-0.91,8.5c1.65-1.25,1.75-0.85,3.03-0.22c-2.29,1.2-1.53,3.79-4.64,2.97c2.11,1.91,2.76,3.17,2.18,6.12
										c-0.58-2.78-2-3.07-3.7-5.24c2.38,3.18,4.76,6.91,2.81,9.18c0.34-3.58-2.52-3.99-4.46-9.23c0.65,3.39,3.56,7.3,4.27,10.95
										C1128.22,596.62,1127.44,593.84,1126.96,587.46L1126.96,587.46z M1137.33,580.94c-3.95-7.53-3.98,2.86-7.23,5.41
										c-1.58,1.23-4.08,0.72-8.58-4.35c-3.54-1.19-3.93-0.89-7.37-3.96c3.93,1.34,8.69-4.91,12.49-4.81
										c-0.46,0.55-0.92,1.08-1.4,1.6c1.99-0.91,4.99-1.49,7.48-0.07C1134.47,575.76,1136.74,577.96,1137.33,580.94
										L1137.33,580.94z M1110.81,576.35c4.99-0.41,6.3-8.72,11.41-10.13c2.16-0.6,4.86,0.3,9.35,4.86
										c-6.41-4.11-8.73-3.35-13.16,1.57c5.19-4.53,11.86-4.44,18.27,5.3c-4.36-5.63-8.91-6.95-12.24-5.6
										C1119.28,574.44,1117.15,579.47,1110.81,576.35L1110.81,576.35z M1088.93,558.38c0.99,4.13,1.83,5.96,4.04,9.54
										c-1.76-1.49-3.13-2.99-4.9-5.68c0.79,2.49,1.96,4.89,4.42,7.33c-0.68-0.24-1.91-0.63-3.28-2.53
										c0.94,2.68,1.68,2.94,2.86,3.96c-0.55,0.98-0.48,1.73-0.6,3.12c1.57-3.52,3.4-2.87,4.21-5.25
										C1093.2,568.33,1090.45,562.05,1088.93,558.38L1088.93,558.38z M1097.48,548.76c-5.07,3.49-4.51,14.31,0.01,20.29
										c-5.95-1.71-7.19-9.81-8.66-15.43c1.8,3.03,2.54,5.69,3.79,8.55C1091.44,555.66,1093.24,548.56,1097.48,548.76
										L1097.48,548.76z M1103.81,571.72c0.11,1.39-0.97,0.36-1.57-0.13c-0.76,0.74-1.92-0.42-3.09-2.24
										c-3.12-1.98-4.23-6.15-4.43-12.23c-0.12-3.61,0.75-6.66,4.19-8.24c0.06,0.31,0.12,0.62,0.19,0.92
										c0.33-0.14,0.67-0.29,1.01-0.45c0.17,0.54,0.33,1.08,0.5,1.62c1.91-3.42,3.16-3.25,6.62-2.58
										c-3.57-0.08-5.12,3.11-5.48,6.97C1101.33,559.94,1103.38,566.32,1103.81,571.72z"/>
								</g>
							</g>
						</g>
					</g>
					<g>
						<path class="st10" d="M1700.54,1186.3c-0.11,36.51-25.96,51.28-57.76,32.92c-337.73-193.71-213.04-120.33-550.74-314.02
							c-31.77-18.35-57.49-62.89-57.39-99.4l1.37-35.11c0.1-36.51,25.99-51.26,57.76-32.92
							c337.73,193.71,213.05,120.32,550.73,314.02c31.81,18.36,57.49,62.9,57.39,99.4L1700.54,1186.3z"/>
						<path class="st11" d="M1112.22,905.48c35.26,20.36,63.93,4,64.04-36.5c0.12-40.52-28.37-89.85-63.63-110.22
							c-35.25-20.35-63.93-4.02-64.04,36.5C1048.47,835.78,1076.96,885.12,1112.22,905.48z"/>
					</g>
					<g>
						<g>
							<linearGradient id="SVGID_3_" gradientUnits="userSpaceOnUse" x1="1404.4265" y1="438.9497" x2="1332.361" y2="553.5817">
								<stop  offset="0" style="stop-color:#2981E6"/>
								<stop  offset="1" style="stop-color:#1761A6"/>
							</linearGradient>
							<path class="st12" d="M1700.54,704.25c-0.11,36.51-25.96,51.28-57.76,32.92c-337.73-193.71-213.04-120.33-550.74-314.02
								c-31.77-18.35-57.49-62.9-57.39-99.4l1.37-35.11c0.1-36.51,25.99-51.26,57.76-32.92
								c337.73,193.71,213.05,120.32,550.73,314.02c31.81,18.36,57.49,62.9,57.39,99.4L1700.54,704.25z"/>
							<g>
								<path class="st13" d="M1112.22,423.43c35.26,20.36,63.93,4.01,64.04-36.5c0.11-40.52-28.37-89.86-63.63-110.22
									c-35.25-20.35-63.93-4.01-64.04,36.5C1048.47,353.73,1076.96,403.07,1112.22,423.43z"/>
								<g>
									<linearGradient id="SVGID_4_" gradientUnits="userSpaceOnUse" x1="1115.3529" y1="329.8818" x2="1092.9348" y2="375.486">
										<stop  offset="0" style="stop-color:#632E40"/>
										<stop  offset="1" style="stop-color:#48202D"/>
									</linearGradient>
									<path class="st14" d="M1102.81,306.61c-0.92,0.03-1.87,0.09-2.86,0.2c-17.86-0.69-21.1,17.7-22.28,28.79
										c-1.76,16.52,0.63,25.18-3.25,32.48c-2.15,4.05-3.69,8.39-4.31,12.72c3.71,5.91,7.8,11.55,12.2,16.79
										c3.29-12.25,15.87-23.5,15.88-33.01c0.92-3.07,3.55-5.75,6.51-7.56l3.83,4.18c1.68,4.38,2.16,6.92,3.69,10.04
										c3.47,7.1,3.62,15.75,10.04,11.6c32.01-21.04,23.97-81.28-18.89-76.3L1102.81,306.61z"/>
									<g>
										
											<linearGradient id="SVGID_5_" gradientUnits="userSpaceOnUse" x1="1108.8108" y1="379.9392" x2="1104.4866" y2="410.8009">
											<stop  offset="0" style="stop-color:#2981E6"/>
											<stop  offset="1" style="stop-color:#1761A6"/>
										</linearGradient>
										<path class="st15" d="M1125.5,425.82c-0.56,1.11-1.01,2.18-1.35,3.21c-3.87-1.39-7.85-3.25-11.93-5.6
											c-14.28-8.24-27.44-21.24-38.05-36.48c0.52-2.24,1.49-4.36,2.84-6.34c3.05-4.45,4.82-7.66,6.34-11.2
											c0.46-2.71,0.93-4.92,1.41-6.42c0.31-1.27,0.98-2.46,1.71-3.5c2.33-3.32,6.51-5.01,13.78-1.96
											c6.53,2.74,15.17,6.41,22.75,11.11c3.3,2.05,13.72,9.81,15.97,12.96c1.13,1.59,1.86,3.5,2.03,5.92
											C1141.79,399,1130.5,415.89,1125.5,425.82z"/>
										<path class="st16" d="M1114.32,346.59c-1.19,6.76,0.73,14.87,1.07,20.92c-5.53,5.13-14.91,1.75-17.2-2.9
											c0.49-3,1.05-5.76,1.37-8.85L1114.32,346.59z"/>
										
											<linearGradient id="SVGID_6_" gradientUnits="userSpaceOnUse" x1="1124.8403" y1="403.0982" x2="1141.2479" y2="408.7409">
											<stop  offset="0" style="stop-color:#2981E6"/>
											<stop  offset="1" style="stop-color:#1761A6"/>
										</linearGradient>
										<path class="st17" d="M1142.59,389.12c1.36,8.48-0.47,26.66-2.83,43.05c-5.63-0.15-11.72-1.49-18.11-4.09
											c-0.47-10.38-0.79-21.6-0.09-26.7c1.31-9.58,6-20.3,12.9-20.55C1139.49,380.64,1141.82,384.3,1142.59,389.12z"/>
									</g>
									<path class="st18" d="M1091.46,317.98c-2.76,4.39-4.23,8.78-3.59,15.02c0.16,1.58-0.07,2.57-0.51,3.59
										c-2.58,5.82-2.35,7.63-1.07,12.3c1.24,4.54,1.16,6.91,2.71,8.47c1.59,1.6,3.96,1.97,5.98,2.1
										c4.13,0.26,11.22-2.46,15.34-4.72c3.06-1.67,2.94-2.81,4.23-5.71c4.31-3.75,1.52-6.49,0.07-6.77
										c-4.14-0.81-4.81,3.97-7.27,5.03C1107.75,338.89,1091.77,324.72,1091.46,317.98z"/>
								</g>
							</g>
							<g>
								<path class="st19" d="M1193.84,416.08l457.79,264.11c3.62,2.09,6.53,0.43,6.53-3.73l0.04-14.78
									c0.01-4.08-2.88-9.16-6.49-11.24l-457.78-264.11c-3.61-2.08-6.53-0.37-6.54,3.72l-0.03,14.78
									C1187.34,408.98,1190.23,413.99,1193.84,416.08z"/>
								<path class="st19" d="M1196.19,368.43l457.79,264.11c3.62,2.09,6.53,0.43,6.53-3.73l0.04-14.78
									c0.01-4.08-2.88-9.16-6.49-11.24l-457.78-264.11c-3.61-2.08-6.53-0.37-6.54,3.72l-0.04,14.78
									C1189.68,361.33,1192.57,366.34,1196.19,368.43z"/>
								<path class="st19" d="M1193.84,464.02l261.31,150.33c3.62,2.09,6.53,0.43,6.53-3.73l0.04-14.78
									c0.01-4.08-2.88-9.16-6.49-11.24l-261.31-150.33c-3.61-2.08-6.53-0.37-6.54,3.72l-0.03,14.78
									C1187.34,456.93,1190.23,461.94,1193.84,464.02z"/>
							</g>
						</g>
						<path class="st19" d="M1330.47,361.74c18.29,10.37,31.89,18.02,45.56,25.71l15.38,8.66l-3.03,5.41l-15.38-8.66
							c-12.46-7.01-24.88-14-45.59-25.74L1330.47,361.74L1330.47,361.74z M1412.06,407.78l36.58,20.77l-3.05,5.38l-36.58-20.77
							L1412.06,407.78L1412.06,407.78z M1464.08,437.35l24.59,14.03l-3.05,5.38l-24.59-14.03L1464.08,437.35L1464.08,437.35z
							 M1503.88,460.07l16.37,9.36l-3.08,5.38l-16.37-9.36L1503.88,460.07L1503.88,460.07z M1563.97,494.44l-3.08,5.38l93.98,53.86
							c18.85,10.88,35.92,29.58,48.3,51.01c12.36,21.41,19.98,45.47,19.94,67.1l-1.66,42.81c-0.04,12.23-2.53,22.31-6.93,29.92
							c-3.13,5.43-7.24,9.6-12.11,12.38c-4.89,2.8-10.57,4.26-16.85,4.24c-8.88-0.03-18.98-2.98-29.74-9.21
							c-205.21-117.7-243.77-139.39-282.3-161.06c-38.37-21.58-76.72-43.16-282.24-161.03c-18.85-10.88-35.93-29.59-48.29-51.02
							c-12.36-21.41-19.99-45.47-19.95-67.1l1.66-42.81c0.03-12.21,2.52-22.28,6.92-29.89c3.13-5.42,7.24-9.6,12.12-12.4
							c4.89-2.81,10.59-4.26,16.86-4.25c8.88,0.02,18.97,2.98,29.72,9.19c56.74,32.54,100.74,57.75,135.52,77.64
							c33.21,19,58.98,33.7,80.21,45.76l3.05-5.38c-18.49-10.51-43.84-24.98-80.18-45.77c-34.78-19.89-78.78-45.1-135.52-77.64
							c-11.69-6.75-22.84-9.97-32.8-9.99c-7.4-0.02-14.13,1.71-19.94,5.05c-5.82,3.34-10.71,8.28-14.4,14.67
							c-4.91,8.5-7.69,19.58-7.74,32.89l-1.66,42.82c-0.06,22.75,7.88,47.95,20.77,70.27c12.89,22.33,30.77,41.88,50.57,53.31
							c205.24,117.71,243.75,139.38,282.29,161.06c38.37,21.58,76.76,43.18,282.25,161.03c11.71,6.76,22.86,9.98,32.82,10.01
							c7.39,0.02,14.12-1.7,19.92-5.05c5.83-3.35,10.71-8.28,14.39-14.66c4.91-8.5,7.7-19.59,7.75-32.91l1.66-42.82
							c0.06-22.75-7.88-47.95-20.77-70.29c-12.88-22.3-30.75-41.83-50.58-53.28L1563.97,494.44z"/>
					</g>
					<g>
						<path class="st10" d="M1700.54,1421.93c-0.11,36.51-25.96,51.28-57.76,32.92c-337.73-193.71-213.04-120.33-550.74-314.02
							c-31.77-18.35-57.49-62.9-57.39-99.4l1.37-35.11c0.1-36.51,25.99-51.26,57.76-32.92
							c337.73,193.71,213.05,120.32,550.73,314.02c31.81,18.36,57.49,62.9,57.39,99.4L1700.54,1421.93z"/>
						<path class="st11" d="M1112.22,1141.11c35.26,20.36,63.93,4,64.04-36.5c0.12-40.52-28.37-89.85-63.63-110.21
							c-35.25-20.35-63.93-4.01-64.04,36.5C1048.47,1071.4,1076.96,1120.75,1112.22,1141.11z"/>
					</g>
				</g>
				<g>
					<path class="st19" d="M1892.16,667.01l28.59,16.6l-3.1,5.36l-28.59-16.6L1892.16,667.01L1892.16,667.01z M1933.27,690.89
						l19.31,11.22l-3.1,5.36l-19.31-11.22L1933.27,690.89L1933.27,690.89z M1963.97,708.71l14.97,8.69l-3.1,5.36l-14.97-8.69
						L1963.97,708.71L1963.97,708.71z M1987.46,722.36l10.57,6.14l-3.1,5.36l-10.57-6.14L1987.46,722.36L1987.46,722.36z
						 M2005.87,733.04l8.65,5.02l-3.1,5.36l-8.65-5.02L2005.87,733.04L2005.87,733.04z M2050.31,758.85l-3.1,5.36l26.35,15.3
						c21.32,12.32,40.65,33.48,54.64,57.72c13.99,24.24,22.63,51.5,22.56,76l-1.88,803.47c-0.04,13.85-2.87,25.27-7.86,33.93
						c-3.56,6.17-8.25,10.92-13.82,14.12c-5.58,3.2-12.07,4.86-19.22,4.84c-10.09-0.03-21.55-3.37-33.72-10.41l-247.06-143.48
						c-21.34-12.32-40.66-33.48-54.66-57.71c-13.99-24.25-22.62-51.5-22.55-76l1.89-803.47c0.04-13.86,2.87-25.3,7.86-33.95
						c3.57-6.18,8.25-10.94,13.8-14.12c5.57-3.2,12.05-4.86,19.2-4.84c10.09,0.03,21.55,3.38,33.75,10.42l3.1-5.36
						c-13.15-7.6-25.68-11.22-36.85-11.24c-8.27-0.02-15.79,1.91-22.28,5.65c-6.51,3.74-11.97,9.26-16.08,16.38
						c-5.52,9.56-8.65,22.05-8.69,37.06l-1.88,803.47c-0.07,25.6,8.87,53.96,23.38,79.1c14.5,25.12,34.61,47.1,56.91,59.97
						l247.07,143.48c13.14,7.59,25.65,11.2,36.81,11.23c8.27,0.02,15.81-1.91,22.3-5.64c6.5-3.73,11.96-9.26,16.1-16.41
						c5.52-9.55,8.64-22.03,8.68-37.02l1.88-803.47c0.07-25.59-8.88-53.95-23.38-79.07c-14.51-25.14-34.63-47.14-56.9-60
						L2050.31,758.85L2050.31,758.85z M1837.99,635.55l41.91,24.34l-3.1,5.36l-41.91-24.34L1837.99,635.55z"/>
					<g>
						<path class="st20" d="M1756.7,689.4c0.13-46.67,33.18-65.56,73.84-42.08l230.19,133.67c40.61,23.45,73.49,80.4,73.36,127.07
							l-1.75,781.61c-0.13,46.67-33.23,65.53-73.85,42.08l-230.18-133.68c-40.66-23.47-73.49-80.4-73.36-127.07L1756.7,689.4z"/>
						<g>
							<g>
								<path class="st21" d="M1767.12,875.52c0.12-44.3,31.5-62.22,70.08-39.94l218.48,126.88
									c38.54,22.26,69.75,76.31,69.63,120.61l-1.66,103.5c-0.13,44.29-31.54,62.2-70.09,39.94l-218.48-126.88
									c-38.59-22.28-69.76-76.32-69.63-120.61L1767.12,875.52z"/>
								<g>
									<g>
										<path class="st22" d="M1798.85,888.05l189.18,109.87c3.62,2.09,6.53,0.43,6.53-3.73l0.04-14.78
											c0.01-4.08-2.88-9.16-6.49-11.24l-189.18-109.87c-3.61-2.08-6.53-0.37-6.54,3.72l-0.04,14.78
											C1792.34,880.96,1795.23,885.97,1798.85,888.05z"/>
										<path class="st22" d="M2022.3,1017.66l69.54,40.08c3.62,2.09,6.53,0.43,6.53-3.73l0.05-14.78c0-4.08-2.89-9.16-6.5-11.24
											l-69.53-40.08c-3.61-2.08-6.53-0.37-6.54,3.72l-0.04,14.78C2015.79,1010.56,2018.68,1015.57,2022.3,1017.66z"/>
									</g>
									<g>
										<path class="st22" d="M1798.85,936.73l227.3,132.74c3.62,2.08,6.53,0.43,6.53-3.73l0.05-14.78
											c0.01-4.08-2.89-9.16-6.5-11.24l-227.3-132.74c-3.61-2.08-6.53-0.37-6.54,3.72l-0.04,14.78
											C1792.34,929.63,1795.23,934.64,1798.85,936.73z"/>
										<path class="st22" d="M2058.66,1087.45l33.18,18.96c3.62,2.09,6.53,0.43,6.53-3.73l0.05-14.78c0-4.08-2.89-9.16-6.5-11.24
											l-33.17-18.96c-3.61-2.08-6.53-0.37-6.54,3.72l-0.03,14.78C2052.15,1080.35,2055.04,1085.36,2058.66,1087.45z"/>
									</g>
									<g>
										<path class="st22" d="M1798.85,985.41l208.53,121.01c3.62,2.09,6.53,0.43,6.53-3.73l0.04-14.78
											c0.01-4.08-2.88-9.16-6.49-11.24l-208.53-121.01c-3.61-2.08-6.53-0.37-6.54,3.72l-0.04,14.78
											C1792.34,978.31,1795.23,983.32,1798.85,985.41z"/>
										<path class="st22" d="M2037.54,1123.81l54.29,31.28c3.62,2.09,6.53,0.43,6.53-3.73l0.05-14.78c0-4.08-2.89-9.16-6.5-11.24
											l-54.28-31.28c-3.61-2.08-6.53-0.36-6.54,3.72l-0.04,14.78C2031.04,1116.71,2033.93,1121.72,2037.54,1123.81z"/>
									</g>
									<g>
										<path class="st22" d="M1798.85,1034.09l219.68,127.46c3.62,2.09,6.53,0.43,6.53-3.73l0.05-14.78
											c0-4.08-2.89-9.16-6.5-11.24l-219.67-127.46c-3.61-2.08-6.53-0.37-6.54,3.72l-0.04,14.78
											C1792.34,1026.99,1795.23,1032,1798.85,1034.09z"/>
										<path class="st22" d="M2047.51,1177.77l44.32,26c3.62,2.09,6.53,0.43,6.53-3.73l0.05-14.78c0-4.08-2.89-9.16-6.5-11.24
											l-44.32-26c-3.61-2.08-6.53-0.37-6.54,3.72l-0.04,14.78C2041.01,1170.67,2043.9,1175.68,2047.51,1177.77z"/>
									</g>
								</g>
							</g>
							<g>
								<g>
									<path class="st23" d="M1941.75,1420.68c-28.12-15.44-56.42-30.99-84.87-46.6c-28.6-15.7-57.41-31.53-86.36-47.44
										c0.25-38.71,0.48-77.37,0.71-115.9c0.23-38.47,0.47-76.88,0.69-115.19c28.78,16.47,57.43,32.86,85.86,49.12
										c28.28,16.17,56.42,32.27,84.38,48.25c-0.07,37.77-0.13,75.62-0.2,113.54C1941.9,1344.42,1941.83,1382.52,1941.75,1420.68z
										"/>
									<path class="st24" d="M1841.37,1297.76c5.42,23.97,11.89,43.72,20.12,54.76c20.12,27,49.87,27.16,56.78-8.88
										c5.84-30.45,5.08-79.2,4.4-102.57c-1.49-51.47-42.7-83.22-73.48-50.05c-27.19-71.59-58.7-43.04-68.93-1.44
										c-8.65,35.15-1.07,117.77,29.02,131.04C1817.84,1324.4,1834.48,1309.06,1841.37,1297.76z"/>
									<path class="st25" d="M1843.08,1287.26c8.62,27.47,17.05,49.23,26.42,60.93c10.26,12.81,21.44,14.23,29.65,13.34
										c18.82-2.04,17.04-89.99,16.13-121.33c-1.34-46.14-48.32-69.6-69.22-34.67c-24.37-64.17-49.27-48.77-58.44-11.48
										c-7.45,30.29-1.39,100.75,23.49,116.28C1819.48,1315.56,1831.04,1296.54,1843.08,1287.26z"/>
									<path class="st26" d="M1770.51,1326.63c0.25-38.71,0.48-77.37,0.71-115.9c0.23-38.47,0.47-76.88,0.69-115.19
										c28.78,16.47,57.43,32.86,85.86,49.12c28.28,16.17,56.42,32.27,84.38,48.25
										C1869.43,1220.77,1824.65,1268.07,1770.51,1326.63z"/>
								</g>
								<g>
									<path class="st19" d="M1960.59,1241.79l151.98,87.9c4.13,2.38,7.44,0.49,7.45-4.25l0.05-16.85
										c0.01-4.66-3.29-10.44-7.4-12.82l-151.97-87.9c-4.11-2.37-7.44-0.42-7.46,4.24l-0.04,16.85
										C1953.17,1233.71,1956.47,1239.42,1960.59,1241.79z"/>
									<path class="st19" d="M1960.59,1301.32l151.98,87.9c4.13,2.38,7.44,0.49,7.45-4.25l0.05-16.85
										c0.01-4.65-3.29-10.44-7.4-12.82l-151.97-87.9c-4.11-2.37-7.44-0.42-7.46,4.24l-0.04,16.85
										C1953.17,1293.23,1956.47,1298.95,1960.59,1301.32z"/>
									<path class="st19" d="M1960.59,1360.85l151.98,87.9c4.13,2.38,7.44,0.49,7.45-4.25l0.05-16.85
										c0.01-4.65-3.29-10.44-7.4-12.82l-151.97-87.9c-4.11-2.37-7.44-0.42-7.46,4.24l-0.04,16.85
										C1953.17,1352.76,1956.47,1358.48,1960.59,1360.85z"/>
									<path class="st19" d="M1960.59,1420.38l90.98,53.3c4.12,2.38,7.44,0.49,7.45-4.25l0.05-16.85
										c0.01-4.65-3.29-10.44-7.4-12.82l-90.98-53.3c-4.11-2.37-7.44-0.42-7.46,4.24l-0.04,16.85
										C1953.17,1412.29,1956.47,1418,1960.59,1420.38z"/>
								</g>
							</g>
							<g>
								<path class="st19" d="M1766.94,1394.13c0.08-28.96,20.59-40.68,45.81-26.11l260.35,149.33
									c25.19,14.55,45.6,49.88,45.52,78.84l-1.09,91.12c-0.08,28.95-20.62,40.66-45.82,26.11l-260.35-149.33
									c-25.23-14.57-45.6-49.89-45.52-78.84L1766.94,1394.13z"/>
								<g>
									<path class="st27" d="M2117.72,1590.52l0.1,72.75l-0.29,24.04c-0.05,17.67-7.72,28.92-19.42,31.69l-313.76-180.72
										c-11.27-16.08-18.55-35.69-18.5-53.03l0.54-45.33c12.78-5.8,26.88-10.95,42.24-4.57c1.59,0.68,3.15,1.45,4.67,2.32
										c12.99,7.48,23.21,21.87,33.99,36.62c10.76,14.7,22.05,29.7,37.14,38.39c1.12,0.65,2.26,1.26,3.42,1.83
										c34.36,16.97,43.71-18.26,69.13-4.41c0.49,0.27,0.99,0.54,1.47,0.82c11.51,6.63,17.57,15.01,24.36,23.84
										c6.76,8.76,14.2,17.95,28.38,26.11c1.07,0.62,2.19,1.24,3.34,1.84c25.53,13.45,52.25-21.24,86.52-17.37
										C2110,1558.47,2116.78,1572.41,2117.72,1590.52z"/>
									
										<linearGradient id="SVGID_7_" gradientUnits="userSpaceOnUse" x1="1947.5796" y1="1538.1382" x2="1932.5035" y2="1651.9197">
										<stop  offset="0" style="stop-color:#31ADCC"/>
										<stop  offset="0.9951" style="stop-color:#198AA6"/>
									</linearGradient>
									<path class="st28" d="M2116.26,1589.11l1.36,0.8l0.1,0.61l0.1,72.76l-0.29,24.03c-0.08,28.95-20.62,40.66-45.82,26.11
										l-260.35-149.33c-25.23-14.57-45.6-49.89-45.52-78.84l0.14-12.06c13.03-6.28,25.29-15.18,42.61-7.46
										c1.34,0.6,2.67,1.28,3.96,2.03c13.36,7.69,24.27,22.71,35.71,38.05c11.42,15.28,23.39,30.91,38.85,39.81
										c0.96,0.55,1.94,1.08,2.93,1.59c34.35,17.51,43.17-19.84,66.9-9.9c1.23,0.52,2.4,1.1,3.51,1.75
										c9.9,5.71,15.37,15.96,22.03,26.87c6.62,10.93,14.44,22.51,29,30.9c0.6,0.34,1.2,0.68,1.82,1.01
										C2044.54,1614.52,2060.54,1557.02,2116.26,1589.11z"/>
									<g>
										<path class="st29" d="M1766.59,1495.3c1.57-0.82,3.14-1.68,4.7-2.53c11.19-6.12,22.39-12.25,37.38-5.19
											c0.68,0.32,1.34,0.65,1.97,0.99c0.69,0.37,1.36,0.76,2,1.15c12.92,7.86,23.57,22.99,34.59,38.67l1.15,1.64
											c5.71,8.09,11.56,16.28,17.9,23.59c6.34,7.33,13.19,13.81,20.92,18.5l1.46,0.86l1.47,0.82
											c19.08,10.26,30.28,2.57,40.52-4.47c8.2-5.64,15.81-10.87,26.37-6.21c0.64,0.29,1.24,0.58,1.81,0.87
											c0.6,0.31,1.17,0.64,1.72,0.97c8.93,5.45,14.28,14.82,20.12,25.09l1.96,3.42c3.3,5.77,6.91,11.71,11.5,17.33
											c4.6,5.61,10.19,10.88,17.46,15.31l1.82,1.06c13.2,7.45,23.68,0.79,35.6-6.77c16.27-10.31,35.2-22.32,67.34-2.76
											l1.42,0.89l0.01,6.56l-1.48-0.93c-32.08-19.51-50.98-7.52-67.21,2.78c-11.96,7.58-22.47,14.25-35.73,6.76l-1.82-1.06
											c-7.3-4.44-12.9-9.73-17.51-15.36c-4.61-5.63-8.24-11.61-11.55-17.41l-1.96-3.42c-5.82-10.22-11.13-19.54-20.02-24.96
											c-0.56-0.34-1.14-0.67-1.71-0.97c-0.61-0.32-1.21-0.61-1.79-0.87c-10.51-4.64-18.09,0.56-26.26,6.18
											c-10.29,7.07-21.51,14.78-40.64,4.49l-1.47-0.81l-1.46-0.86c-7.74-4.71-14.61-11.21-20.97-18.55
											c-6.36-7.36-12.21-15.54-17.92-23.62l-1.16-1.64c-11.01-15.65-21.63-30.75-34.52-38.58c-0.67-0.41-1.33-0.79-1.99-1.15
											c-0.67-0.37-1.33-0.7-1.97-1c-14.93-7.03-26.13-0.91-37.28,5.2c-1.22,0.67-2.43,1.33-3.65,1.98
											C1767.25,1499.28,1766.88,1497.28,1766.59,1495.3z"/>
										<path class="st19" d="M1766.12,1491.31c1.73-0.84,3.45-1.72,5.17-2.6c11.19-5.75,22.39-11.5,37.38-4.81
											c0.68,0.3,1.34,0.62,1.97,0.94c0.69,0.35,1.36,0.71,2,1.08c12.92,7.45,23.57,21.73,34.59,36.54l1.15,1.55
											c5.71,7.64,11.56,15.37,17.9,22.28c6.34,6.92,13.19,13.05,20.92,17.49l1.46,0.81l1.47,0.77
											c19.08,9.72,30.28,2.51,40.52-4.11c8.2-5.3,15.81-10.21,26.37-5.78c0.64,0.27,1.24,0.55,1.81,0.83
											c0.6,0.3,1.17,0.6,1.72,0.91c8.93,5.16,14.28,14.01,20.12,23.7l1.96,3.23c3.3,5.45,6.91,11.07,11.5,16.37
											c4.6,5.29,10.19,10.28,17.46,14.47l1.82,1.01c13.2,7.05,23.68,0.81,35.6-6.29c16.27-9.68,35.2-20.95,67.34-2.44l1.4,0.84
											l0.01,6.18l-1.47-0.87c-32.08-18.47-50.98-7.22-67.21,2.45c-11.96,7.12-22.47,13.37-35.73,6.29l-1.82-1.01
											c-7.3-4.2-12.9-9.2-17.51-14.52c-4.61-5.32-8.24-10.96-11.55-16.44l-1.96-3.23c-5.82-9.65-11.13-18.45-20.02-23.58
											c-0.56-0.32-1.14-0.63-1.71-0.91c-0.61-0.31-1.21-0.58-1.79-0.83c-10.51-4.4-18.09,0.49-26.26,5.76
											c-10.29,6.63-21.51,13.88-40.64,4.13l-1.47-0.78l-1.46-0.81c-7.74-4.46-14.61-10.6-20.97-17.55
											c-6.36-6.94-12.21-14.67-17.92-22.31l-1.16-1.55c-11.01-14.78-21.63-29.04-34.52-36.46c-0.67-0.39-1.33-0.75-1.99-1.09
											c-0.67-0.34-1.33-0.66-1.97-0.95c-14.93-6.66-26.13-0.92-37.28,4.81c-1.49,0.77-2.98,1.53-4.47,2.26
											C1766.55,1495.17,1766.29,1493.23,1766.12,1491.31z"/>
									</g>
								</g>
								<g>
									<path class="st19" d="M1806.37,1477.68c1.15-0.69,1.8-1.98,1.81-3.95c0-1.96-0.64-4.12-1.78-6.1
										c-1.14-1.88-2.69-3.64-4.33-4.59c-1.71-0.99-3.27-1.02-4.42-0.46c-1.15,0.65-1.82,2.05-1.83,4.02
										c-0.01,1.97,0.66,4.02,1.8,6.03c1.14,1.97,2.7,3.61,4.4,4.6C1803.67,1478.18,1805.23,1478.33,1806.37,1477.68
										L1806.37,1477.68z M1802.07,1465.58c2.2,1.27,3.92,4.34,3.9,6.88c-0.01,2.53-1.72,3.59-3.93,2.33
										c-2.29-1.32-4.02-4.38-4.01-6.91C1798.04,1465.35,1799.78,1464.27,1802.07,1465.58L1802.07,1465.58z M1807.86,1466.86
										c1.48,2.55,2.38,5.4,2.37,8.05c0,2.53-0.92,4.46-2.4,5.27c-1.53,0.81-3.59,0.68-5.8-0.6c-2.28-1.32-4.33-3.55-5.88-6.14
										c-1.47-2.52-2.35-5.47-2.34-8.01c0.01-2.65,0.89-4.47,2.38-5.31c1.56-0.89,3.61-0.72,5.9,0.59
										C1804.29,1462,1806.33,1464.19,1807.86,1466.86z"/>
									<path class="st19" d="M1952.71,1539.06c2.21,1.28,3.99,4.36,3.98,6.9c0,2.53-1.8,3.55-4,2.28
										c-2.21-1.27-3.99-4.36-3.98-6.9C1948.71,1538.82,1950.51,1537.79,1952.71,1539.06L1952.71,1539.06z M1957.02,1551.14
										c1.15-0.65,1.8-2.07,1.8-3.95c0-1.96-0.64-4.13-1.77-6.1c-1.06-1.83-2.61-3.59-4.33-4.59c-1.71-0.99-3.27-1.02-4.34-0.42
										c-1.14,0.66-1.8,2.07-1.81,4.03c-0.01,1.88,0.65,4.04,1.78,6.01c1.06,1.93,2.61,3.57,4.32,4.56
										C1954.4,1551.68,1955.95,1551.83,1957.02,1551.14L1957.02,1551.14z M1958.53,1540.33c-1.48-2.64-3.52-4.84-5.8-6.15
										c-2.28-1.32-4.33-1.49-5.82-0.55c-1.46,0.86-2.37,2.69-2.38,5.31c-0.01,2.53,0.89,5.41,2.34,8.01
										c1.48,2.55,3.52,4.78,5.81,6.1c2.29,1.32,4.33,1.46,5.82,0.61c1.46-0.92,2.38-2.75,2.38-5.29
										C1960.88,1545.75,1959.98,1542.87,1958.53,1540.33z"/>
									<path class="st19" d="M2089.04,1581.62c2.21,1.27,3.99,4.39,3.99,6.92c-0.01,2.54-1.81,3.56-4.01,2.29
										c-2.2-1.28-4.01-4.38-4.01-6.92C2085.02,1581.38,2086.84,1580.34,2089.04,1581.62L2089.04,1581.62z M2093.35,1593.71
										c1.14-0.68,1.8-1.98,1.8-3.94c0.01-2-0.63-4.13-1.77-6.11c-1.06-1.84-2.61-3.6-4.33-4.59c-1.71-0.99-3.27-1.02-4.33-0.41
										c-1.15,0.65-1.9,1.98-1.91,3.97c0,1.97,0.74,4.07,1.88,6.07c1.06,1.93,2.62,3.57,4.33,4.56
										C2090.72,1594.26,2092.28,1594.41,2093.35,1593.71L2093.35,1593.71z M2094.84,1582.9c-1.45-2.63-3.5-4.82-5.78-6.14
										c-2.28-1.32-4.34-1.48-5.82-0.55c-1.45,0.86-2.45,2.61-2.45,5.26c-0.01,2.53,0.97,5.55,2.42,8.05
										c1.47,2.55,3.52,4.78,5.8,6.1c2.28,1.32,4.34,1.46,5.79,0.6c1.48-0.82,2.4-2.74,2.41-5.27
										C2097.21,1588.3,2096.31,1585.45,2094.84,1582.9z"/>
								</g>
							</g>
							<g>
								<g>
									<path class="st19" d="M1909.35,805.5l189.18,109.87c3.62,2.09,6.53,0.43,6.53-3.73l0.04-14.78
										c0.01-4.08-2.88-9.16-6.49-11.24l-189.18-109.87c-3.61-2.08-6.53-0.37-6.54,3.72l-0.04,14.78
										C1902.84,798.4,1905.73,803.41,1909.35,805.5z"/>
									<path class="st19" d="M1911.69,757.85l189.18,109.87c3.62,2.09,6.53,0.43,6.53-3.73l0.04-14.78
										c0.01-4.08-2.88-9.16-6.49-11.24L1911.78,728.1c-3.61-2.08-6.53-0.37-6.54,3.72l-0.04,14.78
										C1905.19,750.76,1908.08,755.77,1911.69,757.85z"/>
									<path class="st19" d="M1909.35,853.44l69.54,40.08c3.62,2.09,6.53,0.43,6.53-3.73l0.05-14.78c0-4.08-2.89-9.16-6.5-11.24
										l-69.53-40.08c-3.61-2.08-6.53-0.37-6.54,3.72l-0.04,14.78C1902.84,846.35,1905.73,851.36,1909.35,853.44z"/>
								</g>
								<g>
									<path class="st6" d="M1827.72,812.85c35.26,20.36,63.93,4.01,64.04-36.5c0.12-40.52-28.37-89.86-63.63-110.22
										c-35.25-20.35-63.93-4.01-64.04,36.5C1763.97,743.15,1792.46,792.5,1827.72,812.85z"/>
									<g>
										<linearGradient id="SVGID_8_" gradientUnits="userSpaceOnUse" x1="1830.8561" y1="719.304" x2="1808.438" y2="764.9081">
											<stop  offset="0" style="stop-color:#632E40"/>
											<stop  offset="1" style="stop-color:#48202D"/>
										</linearGradient>
										<path class="st30" d="M1818.31,696.03c-0.92,0.03-1.87,0.09-2.86,0.2c-17.86-0.69-21.1,17.7-22.28,28.79
											c-1.76,16.52,0.63,25.18-3.25,32.48c-2.15,4.05-3.69,8.39-4.31,12.72c3.71,5.91,7.8,11.55,12.2,16.79
											c3.29-12.25,15.87-23.5,15.88-33.01c0.92-3.07,3.55-5.75,6.51-7.56l3.83,4.18c1.68,4.38,2.16,6.92,3.69,10.04
											c3.47,7.1,3.62,15.75,10.04,11.6c32.01-21.04,23.97-81.28-18.89-76.3L1818.31,696.03z"/>
										<g>
											
												<linearGradient id="SVGID_9_" gradientUnits="userSpaceOnUse" x1="1824.3137" y1="769.3616" x2="1819.9895" y2="800.2231">
												<stop  offset="0" style="stop-color:#2981E6"/>
												<stop  offset="1" style="stop-color:#1761A6"/>
											</linearGradient>
											<path class="st31" d="M1841,815.25c-0.56,1.11-1.01,2.18-1.35,3.21c-3.87-1.39-7.85-3.25-11.93-5.6
												c-14.28-8.24-27.44-21.24-38.05-36.48c0.52-2.24,1.49-4.36,2.84-6.34c3.05-4.45,4.82-7.66,6.34-11.2
												c0.46-2.71,0.93-4.92,1.41-6.42c0.31-1.27,0.98-2.46,1.71-3.5c2.33-3.32,6.51-5.01,13.78-1.96
												c6.53,2.74,15.17,6.41,22.75,11.11c3.29,2.05,13.72,9.81,15.97,12.96c1.13,1.59,1.86,3.5,2.03,5.92
												C1857.29,788.42,1846.01,805.32,1841,815.25z"/>
											<path class="st16" d="M1829.82,736.01c-1.19,6.76,0.73,14.87,1.07,20.92c-5.53,5.12-14.91,1.74-17.2-2.9
												c0.49-3,1.05-5.76,1.37-8.85L1829.82,736.01z"/>
											
												<linearGradient id="SVGID_10_" gradientUnits="userSpaceOnUse" x1="1840.3435" y1="792.5205" x2="1856.751" y2="798.1631">
												<stop  offset="0" style="stop-color:#2981E6"/>
												<stop  offset="1" style="stop-color:#1761A6"/>
											</linearGradient>
											<path class="st32" d="M1858.1,778.55c1.36,8.48-0.47,26.66-2.83,43.05c-5.63-0.15-11.72-1.49-18.11-4.09
												c-0.47-10.38-0.79-21.6-0.09-26.7c1.31-9.58,6-20.3,12.9-20.55C1854.99,770.06,1857.33,773.72,1858.1,778.55z"/>
										</g>
										<path class="st18" d="M1806.96,707.41c-2.76,4.39-4.23,8.78-3.59,15.02c0.17,1.58-0.07,2.57-0.51,3.59
											c-2.58,5.82-2.35,7.63-1.07,12.3c1.24,4.54,1.16,6.91,2.71,8.47c1.59,1.6,3.97,1.97,5.98,2.1
											c4.13,0.26,11.22-2.47,15.34-4.72c3.06-1.67,2.94-2.81,4.23-5.71c4.31-3.75,1.52-6.49,0.07-6.77
											c-4.14-0.81-4.81,3.97-7.27,5.03C1823.26,728.31,1807.27,714.14,1806.96,707.41z"/>
									</g>
								</g>
							</g>
						</g>
					</g>
				</g>
			</g>
			<linearGradient id="SVGID_11_" gradientUnits="userSpaceOnUse" x1="1028.4053" y1="693.1511" x2="897.6476" y2="671.075">
				<stop  offset="0" style="stop-color:#31ADCC"/>
				<stop  offset="0.9951" style="stop-color:#198AA6"/>
			</linearGradient>
			<path class="st33" d="M987.21,1153.43c-24.65-31.98-41.01-72.98-40.9-108.87l1.87-832.19c42.73,22.09,50.53,78.83,49.7,136.5
				c67.87,209.34,84.89,313.47,31.29,342.39c-7.47,24.4-15.03,25.41-20.73,70.49C1002.78,910.11,978.13,1038.93,987.21,1153.43z"/>
		</g>
	</g>
	<g>
		<path class="st0" d="M645.44,1374.12l220.39-125.52c24.03-10.98,58.41-19.72,82.89-6.98c22.3,11.61,59.04,35.36,75.29,44.63
			c12.34,7.04,55.17,32.7,28.49,47.21c-78.48,42.68-156.15,90.67-235.84,134.02c-15.07,8.2-37.12,11.16-60.27,9.24
			c-23.04-1.92-46.68-8.63-65.27-19.44c-13.24-7.7-26.27-15.29-39.08-22.75c-17.29-10.07-26.45-21.97-27.36-32.97
			C623.78,1390.82,630.69,1380.86,645.44,1374.12z"/>
		<g>
			<path class="st34" d="M967.58,632.04c-16.03-15.9-68.31-158.25-89.86-220.81c-12.22-35.5,3.79-63.29,37.76-65.83
				c67.2-5.02,75.41,100.36,85.27,142.3c11.02,46.86,26.52,85.85,23.42,118.86C1021.9,630.82,984.27,648.6,967.58,632.04z"/>
			<g>
				<path class="st35" d="M733.97,1298.22c-1.36,4.92-0.6,9.02-3.02,15.48c-2.42,6.45-5.32,13.66-7.96,24.87
					c-4.08,17.32,1.53,40.53-3.97,65.03c-2.84,9.8-2.62,17.65,3.89,26.3c6.38,8.48,18.39,22.08,34.05,21.57
					c3.58-0.12,10.88-1.54,16.52-8.01c5.92-6.8,10.77-16.73,9.87-29.05c-0.34-4.67-3.05-19.72-2.59-33.43
					c0.4-12,2.6-18.61,2.33-31.77c-0.29-13.91-1.36-33.06-1.58-42.04L733.97,1298.22z"/>
				<path class="st35" d="M872.29,1226.93c-4.54,12.33-7.53,17.59-7.74,34.8c2.78,9.08,9.18,12.77,16.31,19.05l5.03,1.1
					c12.46,6.74,17.02,30.39,28.58,41.15c8.16,7.6,24.39,11.73,40.51,14.84c17.23,3.33,33.59-1.59,29.1-15.14
					c-11.14-33.65-59.29-71.66-60.39-109.26L872.29,1226.93z"/>
				<linearGradient id="SVGID_12_" gradientUnits="userSpaceOnUse" x1="963.0023" y1="890.3819" x2="817.107" y2="1008.4042">
					<stop  offset="0" style="stop-color:#105B91"/>
					<stop  offset="1" style="stop-color:#0A3C5F"/>
				</linearGradient>
				<path class="st36" d="M944.55,987.07c-1.24,64.47-18.79,183.97-16.64,247.5c-19.47,13.51-45.95,10.4-56.67-6.5
					c-6.69-58.46-14.49-139.35-15.26-171.43c-0.64-26.7,1.75-51.25,8.57-75.23c-9.57-70.54-50.31-166.8-40.61-233.16
					c4.26-29.15,23.36-60.53,28.92-84.58c48.05,59.2,84.67,30.82,104.55,25.68c-0.11,20.45,1.44,17.72,0.77,39.22
					c-2.24,72.69-5.62,150.32-9.62,225.75C948.71,965.6,947.7,977.98,944.55,987.07z"/>
				<path class="st37" d="M871.24,1228.08c-6.69-58.46-14.49-139.35-15.26-171.43c-0.64-26.7,1.75-51.25,8.57-75.23
					c-9.57-70.54-50.31-166.8-40.61-233.16c4.26-29.15,23.36-60.53,28.92-84.58c19.81,24.4,53.61,58.36,52.54,93.06
					c-2.24,72.69-6.8,146.8-10.79,222.23C895.61,1061.07,881.59,1102.42,871.24,1228.08z"/>
				<linearGradient id="SVGID_13_" gradientUnits="userSpaceOnUse" x1="880.2058" y1="992.1055" x2="763.2535" y2="1024.5282">
					<stop  offset="0" style="stop-color:#105B91"/>
					<stop  offset="1" style="stop-color:#0A3C5F"/>
				</linearGradient>
				<path class="st38" d="M837.53,1033.97c-11.58,64.47-46.71,233.02-54.75,296.55c-20.8,11.56-47.37,5.52-54.72-11.38
					c-0.24-58.46,1.34-175.7,5.72-207.78c3.64-26.7,16.09-66.88,26.76-90.86c1.75-70.54-20.59-168.75-0.24-235.12
					c8.94-29.15,33.07-60.53,42.49-84.58c12.9,19.81,28.54,28.15,71.17,24.67c4.17-0.34,39.71-25.73,51.45-28.65
					c-14.87,89.61-57.73,206.67-78.59,304.4C845.14,1012.5,842.14,1024.88,837.53,1033.97z"/>
			</g>
			<linearGradient id="SVGID_14_" gradientUnits="userSpaceOnUse" x1="838.0009" y1="301.8742" x2="873.299" y2="703.5492">
				<stop  offset="0" style="stop-color:#31ADCC"/>
				<stop  offset="0.9951" style="stop-color:#198AA6"/>
			</linearGradient>
			<path class="st39" d="M809.79,392.48c-30.14,18.71-47.07,35.52-62.7,55.86c-21.79,28.35-23.35,45.73-20.63,82.51
				c3.05,41.23,31.94,89.05,40.93,135.56c4.33,22.42,11.72,57.22-3.67,95.43c-11.84,29.4,18.47,42.94,59.09,40.5
				c48.08-2.89,108.41-29.48,136.3-77.38c7.78-13.37-6.9-147.47,15.87-225.34c12.28-41.99,7.97-107.36-15.68-134.53
				C916.68,316.1,866.17,357.47,809.79,392.48z"/>
			<path class="st40" d="M809.79,392.48c-30.14,18.71-47.07,35.52-62.7,55.86c-21.79,28.35-23.35,45.73-20.63,82.51
				c3.05,41.23,31.94,89.05,40.93,135.56c4.33,22.42,11.72,57.22-3.67,95.43c-11.84,29.4,18.47,42.94,59.09,40.5
				c14.37-0.86,29.84-3.85,45.2-8.88c9.46-74.72,10.85-171.25-1.19-241.5c-4.29-25.04-12.82-50.38-22.22-78.73
				c-18.82-56.73-4.27-83.36,22.06-115.64C848.48,367.23,829.49,380.24,809.79,392.48z"/>
			<linearGradient id="SVGID_15_" gradientUnits="userSpaceOnUse" x1="823.1691" y1="512.7488" x2="907.1011" y2="983.9739">
				<stop  offset="0" style="stop-color:#D2EEFC"/>
				<stop  offset="1" style="stop-color:#C3E6F7"/>
			</linearGradient>
			<path class="st41" d="M809.79,392.48c-30.13,18.71-50.59,34.35-66.22,54.68c-21.79,28.35-23.35,45.73-20.63,82.51
				c3.05,41.23,31.06,92.57,40.05,139.08c3.2,16.55,18.56,34.97-9.16,116.63c-22.31,65.73,3.75,158.71-14.42,239.81
				c20.07,19.27,45.15,25.22,71.08,22.97c36.55-180.53,83.57-421.9,25.69-564.7c-7.22-17.81-15.42-53.76-14.72-65.15
				c2.73-44.53,56.4-61.03,87.69-7.47c52.21,89.36,32.77,414.1,26.16,574.78c12.69-12.43,21-24.19,22.64-32.48
				c3.28-61.96,8.05-404.46,21.73-451.21c12.28-41.99,3.28-109.71-20.37-136.88C916.68,316.1,866.17,357.47,809.79,392.48z"/>
			<linearGradient id="SVGID_16_" gradientUnits="userSpaceOnUse" x1="899.5846" y1="537.3922" x2="785.4501" y2="690.9423">
				<stop  offset="0" style="stop-color:#D2EEFC"/>
				<stop  offset="1" style="stop-color:#C3E6F7"/>
			</linearGradient>
			<path class="st42" d="M731.22,465.99c-9.93,18.92-10.35,35.67-8.27,63.68c3.05,41.23,31.06,92.57,40.05,139.08
				c3.2,16.55,18.56,34.97-9.16,116.63c-22.31,65.73,3.75,158.71-14.42,239.81c3.8,3.65,7.79,6.82,11.92,9.55
				c32.74-79.96,8.48-229.18,53.76-312.46c23.93-0.38,40.98,2.47,55.75,4.44c2.77-31.72,2.88-55.6,2.81-85.71
				c-17.2-3.85-33.13-10.23-57.09-23.41c4.22-66.28,5.08-102.55-8.78-128C786.72,469.29,767.55,461.28,731.22,465.99z"/>
			<g>
				<linearGradient id="SVGID_17_" gradientUnits="userSpaceOnUse" x1="903.2109" y1="471.6443" x2="884.7772" y2="697.446">
					<stop  offset="0" style="stop-color:#105B91"/>
					<stop  offset="1" style="stop-color:#0A3C5F"/>
				</linearGradient>
				<path class="st43" d="M895.05,458.22c15.22,42.13,2.32,57.88-15.42,86.55c-19.33,31.23-14.51,68.92-13.18,109.15
					c7.5,12,21.83,25.11,34.8,33.03c5.4-25.42,9.85-35.23,16.24-49.36c-9.21-20.17-11.99-45.42-7.51-63.53
					c8.83-35.74,32.36-64.98-3.13-119.67c3.58-14.94,4.27-19.64,1.19-21.35c-3.6-2.01-2.8-0.22-14.06,0.89
					c-6.74,0.66-17.51,2.43-15.67,9.93C879.73,449.62,884.36,455.52,895.05,458.22z"/>
				<g>
					<path class="st16" d="M901.17,412.45c1.1-2.36,2.32-4.68,3.53-7.2c3.44-7.19,5.22-22.4,11.67-39.23l-63.13-28.92l-13.37-7.53
						c2.36,24.99-6.13,45.72-15.18,63.45c-3.39,24.01,44.07,34.89,69.07,41.04C896.71,428.25,897.81,419.7,901.17,412.45z"/>
					<path class="st44" d="M893.75,434.1c1.35-3.44,2.04-10.55,3.5-16.73c1.3-5.53,6.26-19.11,6.3-22.65
						c5.63,1.44,9.17,33.41,15.59,46.89C909.21,434.67,904.89,434.07,893.75,434.1z"/>
					<path class="st44" d="M826.28,388.08c0.85,23.81,40.97,40.18,67.71,46.04c-6.49,7.83-14.87,17.68-14.54,25.5
						c-18.64-5.1-50.26-13.87-63.07-37.71C807.62,405.61,816.01,393.68,826.28,388.08z"/>
					<path class="st18" d="M894.4,403c-7.09-5.5-24.57-16.88-30.89-22.3c-13.82-11.85-11.01-25.41-13.61-47.19
						c-12.95-10.82-16.95-18.93-17.51-27.79c-1.32-21.05,12.24-42.59,29.08-53.64c14.71-9.66,30.93-11.45,48.61-6.15
						c34.35,10.3,47.91,29.98,47.47,60.33c-0.04,2.6-1.74,12.76-2.73,15.26c-2.35,5.94-4.1,6.78-5.3,10.97
						c-0.78,2.73-0.91,6.02,0.17,10.5c2.51,10.42-14.04,56.44-21.39,60.89C920.1,408.83,906.54,410.31,894.4,403z"/>
					<path class="st45" d="M928.21,299.12c-7.67-5.62-36.24-26.71-48.52-36.61c-12.57-10.14-26.32-20.98-39.21-14.03
						c-11.97,10.87-18.51,32.85-18.45,45.72c0.09,18.43,9.36,36.01,22.45,55.04c4.92,7.16,8.34-18.36,11.1-23.37
						c1.74,9.57,4.33,13.92,7.11,15.02c2.01,0.79,4.11,2.41,6.05-9.09c2.97-17.63,11.8-19.06,9.72-31.3
						c-1.67-9.81,4.25-7.65,6.87-10.95C898.16,292.36,909,300.8,928.21,299.12z"/>
					<path class="st18" d="M850.65,314.54c-12.72-6.97-15.54,8.63-15.1,18.47c0.3,6.76,5.76,7.22,6.81,12.69
						c1.25,6.53,5.51,10.21,9.58,10.81c8.27,1.21,5.32-11.91,5.19-16.94C859.48,331.79,858.73,318.96,850.65,314.54z"/>
					<path class="st46" d="M839.33,249.44c9.82,4.5,20.64,17.48,34.15,28.01c18.61,14.49,40.76,26.36,59.18,24.58
						c10.59-1.02,22.25-6.78,24.52-11.01C991.22,227.7,865.09,194.38,839.33,249.44z"/>
					<g>
						<path class="st47" d="M933.31,381.97c-1.39-0.2-1.96,0.45-3.62,0.78c-2.63-0.16-3.49-0.11-5.38,0.44
							c-3.46,1.01-4.02,2.95-9.19,4.05c-1.56,0.33-1.3,0.59,0.27,1.28c2.5,1.11,11.58,1.24,15.36-0.03
							c2.51-0.84,1.75-2.14,3.05-3.35C934.78,384.23,936.09,382.36,933.31,381.97z"/>
						<path class="st48" d="M915.63,338.49c-7.59,1.82-13.44,1.84-21.44-3.11C901.67,342.07,908.99,342.08,915.63,338.49z"/>
						<path class="st48" d="M937.03,335.16c6.66-0.26,6.84,0.06,12.35-3.03c-3.65,3.93-6.66,4.33-12.49,4.1L937.03,335.16z"/>
						<path class="st48" d="M934.45,341.81c1.16,7.24,1.02,10.9,4.24,16.05c5.54,8.89,2.43,12.31-6.75,13.22
							c9.71-2.51,8.68-5.31,5.15-13.2C934.87,352.96,934.87,349.91,934.45,341.81z"/>
						<path class="st48" d="M946.02,334.73c-1.32,3.21-4.83,4.09-6.84,1.22C941.58,335.84,943.55,335.79,946.02,334.73z"/>
						<path class="st48" d="M900.74,339.02c1.32,3.21,4.82,4.09,6.84,1.22C905.19,340.13,903.22,340.07,900.74,339.02z"/>
					</g>
				</g>
			</g>
			<g>
				<g>
					<path class="st18" d="M946.25,484.67c-3.69-7-13.9-18.64-22.75-27.79c-11.27-11.65-16.19-23.68-17.66-42.61
						c-0.31-4.02,4.13-10.18,8.94-10.91c1.83-0.28,3.99-0.42,8.08-0.45c3.17-4.69,3.99-5.41,8.45-9.14
						c3.48-2.92,5.78-3.23,10.14-1.52c6.65,2.61,12.39,5.37,15.01,7.82c2.54,2.37,7.29,9.98,11.3,17.33
						c3.46,6.35,7.9,18.32,6.45,23.09c-3.18,10.47-6.36,12.79-4.65,19.34l4.59,17.65L946.25,484.67z"/>
					<g>
						<path class="st18" d="M916.52,402.67c2.64-5.37,2.27-5.83,6.4-10.38c3.23-3.55,5.58-4.21,10.39-3.05
							c7.33,1.77,13.73,3.82,16.84,6.02c3,2.11,9.08,9.39,14.33,16.5c4.54,6.14,5.64,8.98,8.81,17.97l-6.4,1.03l-14.14-4.04
							C930.37,425.44,920.01,404.09,916.52,402.67z"/>
						<path class="st16" d="M956.31,431.38c-4.16-0.03-2.95,0.92-6.66-0.97c-0.3,3.64-3.07,7.24-4.64,6.69
							c-2.34-1.18-3.6-2.92-3.88-5.08c-0.54-4.14,1.57-9.05,5.68-11.43c1.71-0.99,7.74-0.71,15.85-0.3c4.22,0.21,6.1,0.04,7.67,2.04
							c0.95,1.21,1.99,3.47,2.79,6.42c1.57,5.8,2,10.7,0.05,13.78C968.28,438.44,963.87,428.74,956.31,431.38z"/>
						<path class="st16" d="M915.4,403.08c2.64-5.37,3.4-6.24,7.52-10.78c1.13-1.24,2.14-2.13,3.2-2.71l19.91,31.23
							c-2.04,2.36-8.4,12.99-0.67,16.36C938.5,434.2,925.1,422.62,915.4,403.08z"/>
						<g>
							<path class="st18" d="M908.49,428.2c-3.03-6.26-2.21-10.93-3.46-16.84c-0.88-4.17,0.98-9.25,6.06-10.03
								c1.93-0.29,4.22-0.44,8.53-0.48l5.44,1.31c3.4,8.91-2.76,14.45-7.86,14.57c-1.05,0.92,2.38,19.62,3.97,26.54
								C921.65,445.37,912.3,438.15,908.49,428.2z"/>
							<path class="st16" d="M925.1,401.92c-0.29,5.79-6.07,12.45-16.22,11.5c4.26,3.51,8.92,3.74,12.49,2.2
								C926.71,413.32,929.62,407.06,925.1,401.92z"/>
						</g>
					</g>
				</g>
				<linearGradient id="SVGID_18_" gradientUnits="userSpaceOnUse" x1="960.0723" y1="508.2118" x2="1000.3919" y2="626.9977">
					<stop  offset="0" style="stop-color:#D2EEFC"/>
					<stop  offset="1" style="stop-color:#C3E6F7"/>
				</linearGradient>
				<path class="st49" d="M935.65,470.2c3.91,6.05,32.74-2,35.17-7.42l4.51,10.56c3.01,2.6,8.14,7.78,9.73,10.57
					c22.87,40.26,29.7,77.14,37.93,122.99c5.32,29.63-25.12,44.09-43.36,33.6c-35.14-20.21-40.3-113.92-42.68-146.81
					c-0.16-2.27,2.7-8.52,2.25-10.73C938.13,479.62,936.42,472.23,935.65,470.2z"/>
				<linearGradient id="SVGID_19_" gradientUnits="userSpaceOnUse" x1="955.6566" y1="505.6439" x2="990.3978" y2="632.499">
					<stop  offset="0" style="stop-color:#D2EEFC"/>
					<stop  offset="1" style="stop-color:#C3E6F7"/>
				</linearGradient>
				<path class="st50" d="M935.65,470.2c0.93,1.43,3.24,2.07,6.28,2.15c0.65,5.83,1.28,9.13,3.37,11.18
					c13.94-2.24,17.28-4.19,30.04-10.18c-6.3,8.33-17.96,15.69-25.29,17.91c0.47,20.48,17.04,134.19,53.6,150.73
					c-7.97,2.9-16.92,2.6-24.02-1.49c-35.14-20.21-40.3-113.92-42.68-146.81c-0.17-2.27,2.7-8.52,2.25-10.73
					C938.13,479.62,936.42,472.23,935.65,470.2z"/>
			</g>
			<g>
				<g>
					<path class="st18" d="M909.57,677.16c0.6,0.09,18.64-9.53,26.1-8.22c23.21,4.07,22.16,5.23,46.81,5.5
						c-6.74,9.51-11.55,11.01-22.83,8.63C937.05,682.18,925.74,692.93,909.57,677.16z"/>
					<g>
						<path class="st51" d="M912.02,749.23l88.13-109.92l-5.56-7.43l-90.56,109.48l0,0c-1.42,1.75-2.13,3.03-2.19,3.84
							c-0.02,0.27,0.04,0.49,0.16,0.65l5.56,7.43C909.46,752.89,911.43,749.94,912.02,749.23z"/>
						<path class="st52" d="M1168.68,525.5l-147.49,85.15l5.56,7.43l149.25-83.74c1.24-0.72,8.6-4.03,9.69-5.48l-5.56-7.43
							c-1.11-1.43-6.87,1.57-6.91,1.59C1171.66,523.79,1170.17,524.63,1168.68,525.5z"/>
						<path class="st53" d="M1026.74,618.09l-5.56-7.43c-0.05,0.03-0.1,0.06-0.16,0.09c-4.75,2.82-9.31,5.93-13.65,9.33
							c-2.05,1.6-4.02,3.23-5.96,4.98c-2.41,2.18-4.71,4.22-6.83,6.82l5.56,7.43C1007.49,645.52,1029.42,637.23,1026.74,618.09z"/>
						<path class="st54" d="M1175.14,532.41l-148.4,85.68c-9.71,5.61-21.61,15.1-26.59,21.22l-90.56,109.47
							c-4.98,6.12-1.17,6.54,8.54,0.93l148.4-85.68c9.68-5.59,21.58-15.09,26.57-21.2l90.56-109.48
							C1188.63,527.25,1184.82,526.81,1175.14,532.41z"/>
					</g>
					<path class="st18" d="M1005.75,673.79c-10.28-2.64-22.07,4.36-38.19,8.57c-20.86,5.45-17.26-5.35-32.67-9.21
						c-11.89-2.97-24.09,3.26-48.56-0.57l-7.84,30.76l2.38,2.97c19.42,2.23,23.13,3.98,35.16,9.7c9.47,4.5,16.37,7.32,22.17,7.63
						c10.8,0.58,24.9-4.95,37.76-10.83c11.14-5.1,11.96-6.13,17.65-16.91L1005.75,673.79z"/>
				</g>
				<linearGradient id="SVGID_20_" gradientUnits="userSpaceOnUse" x1="759.4485" y1="531.9608" x2="821.5803" y2="704.6802">
					<stop  offset="0" style="stop-color:#D2EEFC"/>
					<stop  offset="1" style="stop-color:#C3E6F7"/>
				</linearGradient>
				<path class="st55" d="M794.98,499.79c1.45,36-10.95,88.46-14.67,129.24c29.19,7.03,70.82,23.05,96.33,31.43
					c4.91,1.61,7.83,6.7,11.17,9.97c3.51,1.38,6.88,1.36,10.58,1.86c2.45,2.65-0.82,27.31-8.73,36.2
					c-2.44-0.71-12.14-1.69-14.78-2.28c-5.01-0.11-9.24,2.65-13.31,2.38c-10.83-0.72-47.6-7.37-77.02-13.47
					c-9-1.87-34.14-8.45-49.28-16.04c-4-2-7.3-4.1-9.81-6.4c-2.88-2.04-5.27-4.77-6.93-8.25c-6.13-33.16-7.62-94.32-7.97-121.16
					c-0.73-54.89,16.64-82.8,42.98-84.97C777.85,456.31,793.69,467.68,794.98,499.79z"/>
			</g>
		</g>
	</g>
	<g>
		<path class="st0" d="M1259.65,1449.04c7.35-4.25,19.34-4.24,26.63-0.01l29.43,17.1l17.18-9.92c2.81-1.63,7.39-1.62,10.17-0.01
			l42.32,24.59c2.78,1.62,2.77,4.27-0.05,5.89l-17.18,9.92l28.78,16.73c7.29,4.23,7.25,11.18-0.1,15.42l-31.52,18.2l101.99,59.27
			c10.47,6.08,10.42,15.98-0.11,22.06l-426.3,246.13c-10.55,6.09-27.63,6.08-38.1,0l-323.24-187.85
			c-10.47-6.08-10.42-15.98,0.12-22.07l426.3-246.13c10.54-6.08,27.62-6.07,38.09,0.01l84.07,48.86L1259.65,1449.04z"/>
		<g>
			<g>
				<path class="st56" d="M1377.88,1498.91l13.98-9.87c3.7-2.14,6.06-3.61,9.26-4.88l0.02,13.21c0.01,2.82-1.84,5.64-5.54,7.77
					l-15.84,9.15l-18.63,10.76l-0.02-13.21L1377.88,1498.91z"/>
				<path class="st57" d="M1361,1443.34c0.45,0.3,1.09,1.07,1.09,1.67c0.31,1.46-0.39,9.62-0.39,11.75c0-0.57-0.47-1.03-0.93-1.3
					l-18.74-10.89l-1-7.14l0.98-4.51L1361,1443.34z"/>
				<path class="st58" d="M678.82,1648.28l304.91,175.4c30.8,13.28,45.88,18.15,56.74,11.88l-0.65,10.63
					c-9.07,5.22-22.95,5.96-33.33,2.2c-3.75-1.36-6.97-3.42-10.43-5.42l-317.9-184.62c-3.77-2.2-7.41-5.65-7.8-10.24
					c-0.21-2.36,0.03-6.21,0.13-9.05c0.02-0.63,0.05-0.94,0.05-1.47L678.82,1648.28z"/>
				<path class="st56" d="M1466.11,1589.99c5.34-3.08,7.15-6.06,7.76-9.98l0.26,8.86c0.01,4.05-2.66,8.11-8,11.19l-426.3,246.13
					l-0.02-10.08L1466.11,1589.99z"/>
				<path class="st56" d="M1337.54,1432.37c1.25-0.71,3.24-0.17,4.48,0.55l0.02,11.64c-1.22-0.72-3.28-0.72-4.51-0.01l-8.46,4.88
					l0-12.19L1337.54,1432.37z"/>
				<path class="st56" d="M1378.75,1447.59c1.42-0.82,7.45,0.38,7.45-0.7l0.02,13.21c0,1.08-0.7,2.15-2.12,2.97l-17.18,9.92
					l-0.02-13.21L1378.75,1447.59z"/>
				<linearGradient id="SVGID_21_" gradientUnits="userSpaceOnUse" x1="1211.683" y1="1353.8175" x2="1034.611" y2="1678.4504">
					<stop  offset="0" style="stop-color:#2981E6"/>
					<stop  offset="1" style="stop-color:#1761A6"/>
				</linearGradient>
				<path class="st59" d="M1352.3,1451.3l8.45-4.88c1.24-0.72,1.23-1.89,0-2.61l-18.73-10.89c-1.25-0.73-3.27-0.73-4.51-0.01
					l-8.45,4.88L1352.3,1451.3L1352.3,1451.3z M678.43,1627.67l426.3-246.13c10.54-6.08,27.62-6.07,38.08,0.01l84.07,48.86
					l31.52-18.19c7.35-4.24,19.34-4.24,26.63-0.01l29.43,17.1l17.18-9.92c2.81-1.62,7.39-1.62,10.17-0.01l42.32,24.59
					c2.78,1.62,2.77,4.27-0.05,5.89l-17.18,9.92l28.78,16.73c7.29,4.23,7.25,11.18-0.1,15.42l-31.52,18.2l101.99,59.27
					c10.47,6.08,10.43,15.98-0.11,22.06l-426.3,246.13c-10.55,6.09-27.63,6.08-38.1,0l-323.24-187.85
					C667.84,1643.65,667.88,1633.76,678.43,1627.67z"/>
			</g>
			<path class="st20" d="M703.56,1626.51l399.1-230.42c9.86-5.69,25.85-5.69,35.66,0.01l302.61,175.86c9.8,5.7,9.76,14.96-0.1,20.65
				l-399.1,230.42c-9.88,5.7-25.87,5.69-35.67,0l-302.62-175.86C693.64,1641.48,693.68,1632.22,703.56,1626.51z"/>
		</g>
		<g>
			<path class="st60" d="M1092.88,1404.14l333.95,194.07l11.19-6.42c9.86-6.32,10.83-14.61-6.81-23.41l-287.98-167.36
				c-20.47-11.88-35.06-6.21-39.24-3.29L1092.88,1404.14z"/>
			<g>
				<g>
					<polygon class="st19" points="981.54,1479.58 1083.77,1539 1181.76,1482.43 1079.52,1423.01 					"/>
					<polygon class="st61" points="985.76,1481.81 1016.27,1499.46 1058.4,1494.43 1049.57,1518.82 1079.94,1536.54 
						1096.09,1489.92 1177.53,1480.2 1148.31,1463.22 1103.58,1468.34 1112.55,1442.44 1083.35,1425.47 1066.29,1472.6 					"/>
					<polygon class="st19" points="858.4,1550.68 960.64,1610.09 1058.62,1553.52 956.39,1494.11 					"/>
					<polygon class="st19" points="735.26,1621.77 837.49,1681.19 935.48,1624.61 833.24,1565.2 					"/>
					<polygon class="st61" points="962.58,1484.39 957.36,1494.68 918.34,1571.65 1041.84,1560.73 1015.29,1545.3 960.96,1550.1 
						981.79,1508.87 986.99,1498.57 					"/>
				</g>
				<polygon class="st61" points="785.27,1642.46 835.12,1554.07 851.6,1568.26 800.17,1652.85 				"/>
			</g>
			<g>
				<path class="st61" d="M1193.88,1506.06c-2.56,1.48-2.58,3.9-0.04,5.37l154.47,89.77c2.53,1.47,6.7,1.47,9.27-0.01l7.14-4.12
					c2.55-1.47,2.56-3.89,0.03-5.36l-154.47-89.77c-2.53-1.47-6.7-1.47-9.25,0L1193.88,1506.06z"/>
				<path class="st19" d="M1132.7,1541.38l5.44-3.14c1.93-1.12,5.11-1.13,7.05,0l107.97,62.75c1.92,1.12,1.91,2.96-0.02,4.08
					l-5.44,3.14c-1.95,1.13-5.14,1.13-7.06,0.01l-107.97-62.75C1130.73,1544.35,1130.76,1542.51,1132.7,1541.38L1132.7,1541.38z
					 M1255.88,1559.32c0.73-0.42,1.19-0.95,1.37-1.49c0.12-0.37,0.12-0.74,0.01-1.11c-0.18-0.55-0.63-1.07-1.36-1.49l-69.84-40.59
					c-1.93-1.12-5.11-1.12-7.06,0.01l-2.29,1.32l-3.13,1.81c-0.97,0.56-1.46,1.3-1.47,2.04c0,0.74,0.47,1.48,1.44,2.04l69.84,40.59
					c1.45,0.84,3.6,1.06,5.41,0.64c0.6-0.14,1.17-0.35,1.65-0.63L1255.88,1559.32L1255.88,1559.32z M1154.39,1528.86
					c-1.95,1.12-1.96,2.96-0.02,4.08l156.66,91.04c1.93,1.12,5.1,1.12,7.05,0l5.44-3.14c1.95-1.12,1.96-2.96,0.02-4.08
					l-156.67-91.04c-1.93-1.12-5.1-1.12-7.05,0L1154.39,1528.86z"/>
				<path class="st19" d="M1009.57,1612.47c-1.95,1.12-1.97,2.96-0.04,4.09l107.97,62.75c1.92,1.12,5.11,1.12,7.06-0.01l5.43-3.13
					c1.95-1.12,1.94-2.96,0.02-4.08l-107.97-62.75c-1.93-1.12-5.1-1.12-7.05,0L1009.57,1612.47L1009.57,1612.47z M1050.45,1588.87
					l5.43-3.13c1.95-1.13,5.12-1.13,7.06-0.01l69.84,40.59c1.93,1.12,1.92,2.97-0.02,4.1l-5.43,3.14c-1.95,1.12-5.12,1.11-7.06-0.01
					l-69.84-40.59C1048.49,1591.83,1048.5,1590,1050.45,1588.87L1050.45,1588.87z M1031.25,1599.95l5.44-3.14
					c1.95-1.12,5.11-1.12,7.05,0l156.67,91.05c1.93,1.12,1.92,2.96-0.02,4.08l-5.44,3.14c-1.95,1.12-5.11,1.12-7.05,0l-156.67-91.04
					C1029.3,1602.91,1029.31,1601.08,1031.25,1599.95z"/>
				<path class="st61" d="M1070.73,1577.16c-2.55,1.47-2.56,3.89-0.03,5.36l154.47,89.77c2.53,1.47,6.7,1.47,9.25,0l7.14-4.12
					c2.56-1.48,2.57-3.9,0.04-5.37l-154.47-89.77c-2.53-1.47-6.71-1.47-9.26,0.01L1070.73,1577.16z"/>
				<path class="st19" d="M857.29,1692.75c-1.95,1.12-1.97,2.96-0.04,4.09l107.97,62.75c1.92,1.12,5.11,1.12,7.06-0.01l5.43-3.13
					c1.95-1.12,1.94-2.96,0.03-4.08l-107.98-62.75c-1.93-1.12-5.1-1.12-7.05,0L857.29,1692.75L857.29,1692.75z M898.17,1669.15
					l5.43-3.13c1.95-1.13,5.12-1.13,7.06-0.01l69.84,40.58c1.93,1.12,1.92,2.97-0.02,4.1l-5.43,3.14c-1.95,1.12-5.12,1.11-7.06-0.01
					l-69.84-40.59C896.21,1672.11,896.22,1670.27,898.17,1669.15L898.17,1669.15z M878.98,1680.23l5.44-3.14
					c1.94-1.12,5.11-1.12,7.05,0l156.67,91.05c1.93,1.12,1.92,2.96-0.02,4.08l-5.44,3.14c-1.95,1.12-5.11,1.12-7.05,0l-156.67-91.04
					C877.02,1683.19,877.03,1681.35,878.98,1680.23z"/>
			</g>
		</g>
		<g>
			<path class="st0" d="M1512.31,1665.49l51.32-8.65h0l14.58-2.68c1.44-0.27,1.51-0.19,0.47,1.03l-10.4,11.99l-31.29,36.73
				l-0.01-0.06l-11.93,15.09l-395.03,233.9l-0.02,0.03l-0.01-0.01l-0.03,0.02l0.01-0.03l-18.41-11.62l-6.38-26.76l12-15.17v0l0,0
				l395.01-233.89L1512.31,1665.49z"/>
			<g>
				<polygon class="st62" points="1510.25,1650.64 1577.42,1639.31 1538.83,1660.55 1528.64,1662.27 				"/>
				<path class="st63" d="M1306.18,1820.3l35.9-24.47l193.03-106.91l-11.98,15.15c-131.7,77.98-263.39,155.96-395.09,233.94
					l4.35-8.77l7.63-6.39l82.32-56.11L1306.18,1820.3z"/>
				<path class="st61" d="M1510.27,1650.54l18.41,11.61l-194.17,126.19l-45.65,22.76l-74.09,48.15l-86.28,43.01l-13.26-17.79
					l0.02-0.04C1246.93,1806.47,1378.6,1728.5,1510.27,1650.54z"/>
				<path class="st60" d="M1528.69,1662.15l6.42,26.76c-131.7,77.98-263.39,155.96-395.09,233.94l-8.98-11.7l2.56-15.05
					C1265.3,1818.11,1396.98,1740.13,1528.69,1662.15z"/>
				<polygon class="st64" points="1577.43,1639.31 1535.07,1689.03 1528.64,1662.27 				"/>
				<path class="st63" d="M1561.71,1641.96l14.58-2.68c1.44-0.27,1.51-0.19,0.47,1.02l-10.4,12
					C1567.45,1648.47,1568.36,1642.7,1561.71,1641.96z"/>
				<polygon class="st63" points="1115.26,1884.43 1103.26,1899.6 1109.64,1926.36 1128.08,1937.99 1140.08,1922.82 
					1133.65,1896.06 1124.42,1890.2 				"/>
			</g>
		</g>
	</g>
</g>
</svg>
