<?xml version="1.0" encoding="utf-8"?>
<!-- Generator: Adobe Illustrator 24.0.2, SVG Export Plug-In . SVG Version: 6.00 Build 0)  -->
<svg version="1.1" id="Camada_1" xmlns="http://www.w3.org/2000/svg" xmlns:xlink="http://www.w3.org/1999/xlink" x="0px" y="0px"
	 viewBox="0 0 78 50" style="enable-background:new 0 0 78 50;" xml:space="preserve">
<style type="text/css">
	.st0{fill:#7F7F7F;}
	.st1{fill:#2D9AA9;}
	.st2{fill:#FFFFFF;}
	.st3{opacity:0.25;}
	.st4{opacity:0.3;fill:#FFFFFF;}
	.st5{opacity:0.3137;fill:#FAFAFA;}
	.st6{opacity:0.3275;fill:#F5F5F5;}
	.st7{opacity:0.3412;fill:#F0F0F0;}
	.st8{opacity:0.3549;fill:#EBEBEB;}
	.st9{opacity:0.3686;fill:#E6E6E6;}
	.st10{opacity:0.3824;fill:#E1E1E1;}
	.st11{opacity:0.3961;fill:#DCDCDC;}
	.st12{opacity:0.4098;fill:#D7D7D7;}
	.st13{opacity:0.4235;fill:#D2D2D2;}
	.st14{opacity:0.4373;fill:#CDCDCD;}
	.st15{opacity:0.451;fill:#C8C8C8;}
	.st16{opacity:0.4647;fill:#C3C3C3;}
	.st17{opacity:0.4784;fill:#BEBEBE;}
	.st18{opacity:0.4922;fill:#B9B9B9;}
	.st19{opacity:0.5059;fill:#B4B4B4;}
	.st20{opacity:0.5196;fill:#AFAFAF;}
	.st21{opacity:0.5333;fill:#AAAAAA;}
	.st22{opacity:0.5471;fill:#A5A5A5;}
	.st23{opacity:0.5608;fill:#A0A0A0;}
	.st24{opacity:0.5745;fill:#9B9B9B;}
	.st25{opacity:0.5882;fill:#969696;}
	.st26{opacity:0.602;fill:#919191;}
	.st27{opacity:0.6157;fill:#8C8C8C;}
	.st28{opacity:0.6294;fill:#878787;}
	.st29{opacity:0.6431;fill:#828282;}
	.st30{opacity:0.6569;fill:#7D7D7D;}
	.st31{opacity:0.6706;fill:#787878;}
	.st32{opacity:0.6843;fill:#737373;}
	.st33{opacity:0.698;fill:#6E6E6E;}
	.st34{opacity:0.7118;fill:#696969;}
	.st35{opacity:0.7255;fill:#646464;}
	.st36{opacity:0.7392;fill:#5F5F5F;}
	.st37{opacity:0.7529;fill:#5A5A5A;}
	.st38{opacity:0.7667;fill:#555555;}
	.st39{opacity:0.7804;fill:#505050;}
	.st40{opacity:0.7941;fill:#4B4B4B;}
	.st41{opacity:0.8078;fill:#464646;}
	.st42{opacity:0.8216;fill:#414141;}
	.st43{opacity:0.8353;fill:#3C3C3C;}
	.st44{opacity:0.849;fill:#373737;}
	.st45{opacity:0.8627;fill:#323232;}
	.st46{opacity:0.8765;fill:#2D2D2D;}
	.st47{opacity:0.8902;fill:#282828;}
	.st48{opacity:0.9039;fill:#232323;}
	.st49{opacity:0.9176;fill:#1E1E1E;}
	.st50{opacity:0.9314;fill:#191919;}
	.st51{opacity:0.9451;fill:#141414;}
	.st52{opacity:0.9588;fill:#0F0F0F;}
	.st53{opacity:0.9725;fill:#0A0A0A;}
	.st54{opacity:0.9863;fill:#050505;}
</style>
<g>
	<path class="st0" d="M-218.32,160.91l0.85-1.17c2.83,2.16,5.98,3.28,9.49,3.28c5.71,0,9.58-3.24,9.58-9.58v-4.09
		c-1.75,3.46-5.31,6.07-9.9,6.07c-5.9,0-11.07-4.59-11.07-10.71v-0.09c0-6.16,5.17-10.75,11.07-10.75c4.59,0,8.14,2.61,9.9,5.98
		v-5.44h1.48v19.21c0,3.33-1.08,5.98-2.92,7.83c-1.94,1.93-4.81,2.97-8.14,2.97C-211.79,164.42-215.21,163.25-218.32,160.91z
		 M-198.25,144.71v-0.09c0-5.26-4.63-9.36-9.9-9.36c-5.31,0-9.63,3.96-9.63,9.31v0.09c0,5.27,4.36,9.36,9.63,9.36
		C-202.88,154.02-198.25,149.97-198.25,144.71z"/>
	<path class="st0" d="M-173.68,145.74v-0.09c0-6.66,4.59-11.79,10.84-11.79c6.84,0,10.39,5.85,10.39,11.92c0,0.23,0,0.32,0,0.5
		h-19.66c0.27,6.17,4.63,9.99,9.72,9.99c3.51,0,6.34-1.85,8.15-4.19l1.08,0.86c-2.07,2.7-5.13,4.68-9.27,4.68
		C-168.55,157.62-173.68,152.99-173.68,145.74z M-154.02,144.98c-0.22-4.95-3.24-9.76-8.91-9.76c-5.13,0-8.91,4.18-9.18,9.76
		H-154.02z"/>
	<path class="st0" d="M-131.56,154.16l0.85-1.13c2.52,1.98,5.53,3.1,8.46,3.1c3.64,0,6.48-1.93,6.48-4.72v-0.09
		c0-3.2-3.42-4.18-6.88-5.13c-4.23-1.21-7.87-2.38-7.87-6.17v-0.09c0-3.38,3.1-5.94,7.74-5.94c2.61,0,5.58,0.9,7.96,2.52l-0.81,1.21
		c-2.16-1.53-4.81-2.38-7.2-2.38c-3.73,0-6.21,1.94-6.21,4.46v0.09c0,2.83,3.19,3.87,6.88,4.91c4.14,1.13,7.87,2.43,7.87,6.39v0.09
		c0,3.73-3.51,6.21-8.05,6.21C-125.57,157.49-129.08,156.23-131.56,154.16z"/>
	<path class="st0" d="M-90.07,151.28v-15.57h-3.46v-1.3h3.46v-7.61h1.44v7.61h8.23v1.3h-8.23v15.43c0,3.33,1.75,4.99,4.72,4.99
		c1.13,0,2.25-0.27,3.42-0.81v1.39c-1.13,0.54-2.29,0.77-3.55,0.77C-87.68,157.49-90.07,155.37-90.07,151.28z"/>
	<path class="st0" d="M-59.47,150.69v-0.09c0-4.72,4.27-7.29,10.03-7.29c3.15,0,5.89,0.54,8.1,1.26v-1.53c0-5.13-3.06-7.65-8.1-7.65
		c-2.79,0-5.13,0.77-7.38,1.89l-0.54-1.26c2.52-1.21,5-1.98,8.01-1.98c3.1,0,5.53,0.81,7.2,2.47c1.44,1.49,2.25,3.65,2.25,6.43
		v14.13h-1.44v-4.72c-1.17,2.47-4.32,5.26-9.54,5.26C-55.24,157.62-59.47,155.28-59.47,150.69z M-41.29,148.71v-2.79
		c-2.21-0.72-4.81-1.26-8.19-1.26c-5,0-8.46,2.12-8.46,5.85v0.09c0,3.73,3.38,5.67,7.15,5.67
		C-45.3,156.27-41.29,152.76-41.29,148.71z M-55.1,130.08c0.67-2.88,1.89-3.87,3.46-3.87c1.8,0,4.27,2.34,5.8,2.34
		c1.08,0,1.75-0.63,2.43-2.61l0.99,0.22c-0.67,2.88-1.89,3.83-3.46,3.83c-1.8,0-4.27-2.29-5.8-2.29c-1.08,0-1.75,0.58-2.43,2.61
		L-55.1,130.08z"/>
	<path class="st0" d="M-17.17,145.83v-0.09c0-6.34,4.81-11.88,11.79-11.88c6.93,0,11.7,5.44,11.7,11.79v0.09
		c0,6.34-4.77,11.88-11.74,11.88C-12.36,157.62-17.17,152.18-17.17,145.83z M4.79,145.79v-0.09c0-5.71-4.36-10.48-10.26-10.48
		c-5.98,0-10.13,4.77-10.13,10.48v0.09c0,5.71,4.32,10.49,10.21,10.49C0.6,156.27,4.79,151.5,4.79,145.79z"/>
	<path class="st0" d="M56.76,154.16l0.85-1.13c2.52,1.98,5.53,3.1,8.46,3.1c3.64,0,6.48-1.93,6.48-4.72v-0.09
		c0-3.2-3.42-4.18-6.88-5.13c-4.23-1.21-7.87-2.38-7.87-6.17v-0.09c0-3.38,3.1-5.94,7.74-5.94c2.61,0,5.58,0.9,7.96,2.52l-0.81,1.21
		c-2.16-1.53-4.81-2.38-7.2-2.38c-3.73,0-6.21,1.94-6.21,4.46v0.09c0,2.83,3.19,3.87,6.88,4.91c4.14,1.13,7.87,2.43,7.87,6.39v0.09
		c0,3.73-3.51,6.21-8.05,6.21C62.75,157.49,59.24,156.23,56.76,154.16z"/>
	<path class="st0" d="M95.91,145.74v-0.09c0-6.66,4.59-11.79,10.84-11.79c6.84,0,10.39,5.85,10.39,11.92c0,0.23,0,0.32,0,0.5H97.49
		c0.27,6.17,4.63,9.99,9.72,9.99c3.51,0,6.34-1.85,8.15-4.19l1.08,0.86c-2.07,2.7-5.13,4.68-9.27,4.68
		C101.04,157.62,95.91,152.99,95.91,145.74z M115.58,144.98c-0.22-4.95-3.24-9.76-8.91-9.76c-5.13,0-8.91,4.18-9.18,9.76H115.58z"/>
	<path class="st0" d="M140.15,134.41h1.44v5.08c0.99-2.65,3.69-5.62,7.74-5.62c4.54,0,7.02,2.74,8.01,5.98
		c1.13-2.97,4-5.98,8.14-5.98c5.17,0,8.59,3.51,8.59,9.67v13.54h-1.44v-13.41c0-5.49-2.88-8.46-7.24-8.46
		c-3.87,0-7.56,3.51-7.56,8.64v13.23h-1.44v-13.45c0-5.4-2.92-8.42-7.2-8.42c-3.96,0-7.6,3.78-7.6,8.68v13.18h-1.44V134.41z"/>
	<path class="st0" d="M227.99,134.41h1.44v6.25c1.57-3.78,5.08-6.79,10.03-6.79c6.12,0,11.2,4.9,11.2,11.83v0.09
		c0,6.88-5.08,11.83-11.2,11.83c-4.99,0-8.5-2.97-10.03-6.71v13.36h-1.44V134.41z M249.14,145.83v-0.09
		c0-5.98-4.19-10.48-9.81-10.48c-5.58,0-9.99,4.59-9.99,10.44v0.09c0,5.85,4.46,10.44,9.99,10.44
		C245.04,156.23,249.14,151.91,249.14,145.83z"/>
	<path class="st0" d="M272.09,150.69v-0.09c0-4.72,4.27-7.29,10.03-7.29c3.15,0,5.89,0.54,8.1,1.26v-1.53c0-5.13-3.06-7.65-8.1-7.65
		c-2.79,0-5.13,0.77-7.38,1.89l-0.54-1.26c2.52-1.21,5-1.98,8.01-1.98c3.1,0,5.53,0.81,7.2,2.47c1.44,1.49,2.25,3.65,2.25,6.43
		v14.13h-1.44v-4.72c-1.17,2.47-4.32,5.26-9.54,5.26C276.32,157.62,272.09,155.28,272.09,150.69z M290.27,148.71v-2.79
		c-2.21-0.72-4.81-1.26-8.19-1.26c-5,0-8.46,2.12-8.46,5.85v0.09c0,3.73,3.38,5.67,7.15,5.67
		C286.26,156.27,290.27,152.76,290.27,148.71z"/>
	<path class="st0" d="M316.01,134.41h1.44v6.25c1.57-3.78,5.08-6.79,10.03-6.79c6.12,0,11.2,4.9,11.2,11.83v0.09
		c0,6.88-5.08,11.83-11.2,11.83c-4.99,0-8.5-2.97-10.03-6.71v13.36h-1.44V134.41z M337.16,145.83v-0.09
		c0-5.98-4.19-10.48-9.81-10.48c-5.58,0-9.99,4.59-9.99,10.44v0.09c0,5.85,4.46,10.44,9.99,10.44
		C333.06,156.23,337.16,151.91,337.16,145.83z"/>
	<path class="st0" d="M360.42,145.74v-0.09c0-6.66,4.59-11.79,10.84-11.79c6.84,0,10.39,5.85,10.39,11.92c0,0.23,0,0.32,0,0.5H362
		c0.27,6.17,4.63,9.99,9.72,9.99c3.51,0,6.34-1.85,8.15-4.19l1.08,0.86c-2.07,2.7-5.13,4.68-9.27,4.68
		C365.55,157.62,360.42,152.99,360.42,145.74z M380.09,144.98c-0.22-4.95-3.24-9.76-8.91-9.76c-5.13,0-8.91,4.18-9.18,9.76H380.09z"
		/>
	<path class="st0" d="M404.93,124.24h1.49v32.85h-1.49V124.24z"/>
</g>
<g>
	<path class="st0" d="M37.6,75.44c-0.19,0.4-0.46,0.73-0.8,1c-0.34,0.27-0.75,0.47-1.21,0.6s-0.96,0.2-1.49,0.2
		c-0.74,0-1.48-0.13-2.24-0.39c-0.76-0.26-1.46-0.64-2.1-1.14l1.05-1.59c0.56,0.41,1.12,0.73,1.7,0.94
		c0.57,0.21,1.13,0.32,1.66,0.32c0.5,0,0.89-0.1,1.17-0.3c0.28-0.2,0.42-0.47,0.42-0.8v-0.04c0-0.19-0.06-0.36-0.18-0.5
		c-0.12-0.14-0.29-0.27-0.5-0.38c-0.21-0.11-0.46-0.21-0.74-0.29c-0.28-0.08-0.57-0.17-0.86-0.26c-0.37-0.12-0.75-0.25-1.13-0.39
		c-0.38-0.14-0.72-0.33-1.03-0.55c-0.3-0.23-0.55-0.5-0.75-0.83c-0.19-0.33-0.29-0.74-0.29-1.23v-0.04c0-0.48,0.09-0.91,0.28-1.3
		c0.19-0.39,0.45-0.72,0.78-0.99c0.33-0.27,0.72-0.48,1.16-0.62c0.45-0.14,0.92-0.21,1.42-0.21c0.65,0,1.3,0.1,1.96,0.31
		c0.66,0.21,1.26,0.49,1.8,0.85l-0.93,1.67c-0.49-0.3-0.99-0.53-1.49-0.71c-0.5-0.17-0.97-0.26-1.4-0.26c-0.45,0-0.8,0.1-1.06,0.29
		c-0.25,0.19-0.38,0.44-0.38,0.74v0.04c0,0.18,0.06,0.34,0.19,0.47c0.13,0.14,0.3,0.26,0.51,0.37c0.21,0.11,0.46,0.21,0.74,0.31
		c0.28,0.1,0.57,0.19,0.86,0.28c0.37,0.12,0.75,0.25,1.12,0.41c0.37,0.16,0.71,0.35,1.02,0.57c0.3,0.23,0.55,0.5,0.75,0.82
		c0.19,0.32,0.29,0.72,0.29,1.18v0.04C37.89,74.57,37.79,75.04,37.6,75.44z"/>
	<path class="st0" d="M46.53,77.05v-1.26c-0.35,0.41-0.79,0.76-1.34,1.05c-0.54,0.28-1.2,0.43-1.98,0.43c-0.49,0-0.96-0.07-1.4-0.2
		c-0.44-0.14-0.82-0.34-1.15-0.6c-0.33-0.26-0.59-0.59-0.79-0.99c-0.2-0.39-0.3-0.85-0.3-1.37v-0.04c0-0.56,0.1-1.04,0.31-1.45
		c0.21-0.41,0.49-0.76,0.86-1.03c0.37-0.27,0.81-0.47,1.32-0.61c0.51-0.14,1.06-0.2,1.66-0.2c0.62,0,1.15,0.04,1.58,0.12
		c0.43,0.08,0.85,0.18,1.25,0.31v-0.25c0-0.71-0.22-1.25-0.65-1.63c-0.43-0.37-1.06-0.56-1.87-0.56c-0.58,0-1.1,0.06-1.55,0.17
		c-0.45,0.12-0.91,0.27-1.38,0.47l-0.64-1.88c0.57-0.26,1.15-0.47,1.74-0.62c0.59-0.16,1.31-0.23,2.15-0.23
		c1.52,0,2.66,0.38,3.39,1.13c0.74,0.76,1.1,1.82,1.1,3.19v6.07H46.53z M46.59,72.7c-0.3-0.12-0.65-0.21-1.06-0.29
		c-0.41-0.08-0.84-0.12-1.29-0.12c-0.74,0-1.31,0.14-1.73,0.43c-0.41,0.28-0.62,0.69-0.62,1.22v0.04c0,0.49,0.19,0.87,0.57,1.12
		c0.38,0.26,0.85,0.39,1.41,0.39c0.39,0,0.75-0.05,1.08-0.16c0.33-0.1,0.62-0.25,0.86-0.44c0.25-0.19,0.44-0.41,0.57-0.68
		c0.14-0.26,0.2-0.56,0.2-0.88V72.7z"/>
	<path class="st0" d="M58.36,66.81h2.36v10.24h-2.36v-1.61c-0.34,0.5-0.75,0.92-1.26,1.28c-0.5,0.36-1.15,0.54-1.93,0.54
		c-1.16,0-2.06-0.36-2.69-1.07c-0.63-0.71-0.95-1.67-0.95-2.87v-6.51h2.36v5.8c0,0.8,0.19,1.42,0.57,1.85
		c0.38,0.43,0.91,0.65,1.61,0.65c0.68,0,1.23-0.22,1.65-0.67c0.42-0.44,0.63-1.07,0.63-1.87V66.81z M55,65.53l2.05-3.18l2.13,0.95
		l-2.36,2.23H55z"/>
	<path class="st0" d="M71.36,77.05v-1.71c-0.37,0.53-0.84,0.98-1.4,1.36s-1.25,0.56-2.08,0.56c-0.61,0-1.19-0.12-1.76-0.35
		c-0.57-0.23-1.07-0.58-1.51-1.04c-0.44-0.46-0.79-1.02-1.06-1.68c-0.27-0.66-0.41-1.42-0.41-2.27s0.13-1.61,0.4-2.27
		c0.26-0.66,0.62-1.22,1.05-1.68c0.44-0.46,0.94-0.8,1.52-1.04c0.57-0.23,1.16-0.35,1.77-0.35c0.84,0,1.53,0.18,2.09,0.54
		c0.55,0.36,1.02,0.78,1.39,1.26V62.9h2.36v14.15H71.36z M71.16,70.57c-0.16-0.4-0.38-0.75-0.65-1.04
		c-0.27-0.29-0.59-0.51-0.95-0.67c-0.36-0.15-0.73-0.23-1.12-0.23c-0.4,0-0.78,0.07-1.13,0.22c-0.35,0.15-0.67,0.37-0.94,0.65
		c-0.27,0.28-0.48,0.63-0.64,1.04c-0.15,0.41-0.23,0.87-0.23,1.39c0,0.5,0.08,0.96,0.23,1.37c0.15,0.41,0.37,0.75,0.64,1.04
		c0.27,0.28,0.58,0.5,0.94,0.66c0.35,0.15,0.73,0.23,1.13,0.23c0.39,0,0.76-0.08,1.12-0.23c0.36-0.16,0.68-0.38,0.95-0.67
		c0.27-0.29,0.49-0.64,0.65-1.04c0.16-0.4,0.24-0.85,0.24-1.36S71.32,70.97,71.16,70.57z"/>
	<path class="st0" d="M79.45,74.69c0.53,0.45,1.18,0.67,1.94,0.67c0.58,0,1.09-0.1,1.51-0.31c0.43-0.21,0.85-0.51,1.26-0.91
		l1.38,1.22c-0.49,0.58-1.08,1.05-1.75,1.4c-0.68,0.35-1.49,0.52-2.43,0.52c-0.74,0-1.42-0.13-2.06-0.39
		c-0.64-0.26-1.2-0.62-1.67-1.09c-0.47-0.47-0.84-1.02-1.11-1.68c-0.27-0.65-0.41-1.38-0.41-2.18c0-0.74,0.12-1.43,0.37-2.07
		c0.25-0.65,0.59-1.21,1.04-1.7c0.45-0.48,0.97-0.87,1.58-1.15c0.61-0.28,1.28-0.43,2.02-0.43c0.81,0,1.53,0.15,2.14,0.45
		c0.61,0.3,1.12,0.7,1.53,1.2c0.41,0.5,0.71,1.09,0.92,1.76C85.9,70.68,86,71.39,86,72.12c0,0.1,0,0.21-0.01,0.31
		c-0.01,0.1-0.02,0.21-0.03,0.33h-7.52C78.58,73.6,78.92,74.25,79.45,74.69z M83.67,71.21c-0.04-0.37-0.12-0.73-0.25-1.06
		c-0.13-0.33-0.3-0.61-0.52-0.85c-0.22-0.24-0.48-0.43-0.79-0.57c-0.3-0.14-0.65-0.21-1.04-0.21c-0.72,0-1.32,0.25-1.79,0.75
		c-0.47,0.5-0.76,1.15-0.86,1.95H83.67z"/>
</g>
<g>
	<path class="st1" d="M50.88,49.13c2.25-3.66,4.1-6.77,6.07-9.82c0.77-1.19,0.37-2.07-0.23-3.11C50.27,25.06,43.86,13.92,37.44,2.78
		c-0.51-0.89-0.92-1.82-2.22-1.81C31.5,1,27.78,0.98,23.56,0.98c3.49,6.19,6.54,12.01,10.01,17.56c1.64,2.62,3.1,4.21,1.14,6.54
		c-0.94,1.12-2.92,2.89-3.7,4.14c-1.29-0.28-11.07-17.99-15.52-25.93c-0.95-1.7-1.98-2.48-3.99-2.37C8.34,1.09,5.17,0.96,1.25,0.96
		c9.21,16.23,18.12,31.96,27.35,48.22c3.93-6.51,8.27-11.16,12.19-17.66C44.4,37.86,47.14,42.57,50.88,49.13z"/>
	<path class="st1" d="M76.37,5.37c-4.02,6.79-7.96,13.46-12.01,20.32c-1.05,1.77-3.61,1.77-4.66,0
		c-4.05-6.85-7.99-13.51-12.01-20.32c-1.07-1.8,0.23-4.08,2.33-4.08h24.02C76.14,1.29,77.44,3.56,76.37,5.37z"/>
	<g>
		<path class="st2" d="M64.35,2.97h3.33v4.19h4.24v3.26h-4.24v4.22h-3.33v-4.22h-4.24V7.17h4.24V2.97z"/>
	</g>
	<g class="st3">
		<polygon class="st4" points="60.26,22.88 52.12,2.42 56.14,0.81 63.12,9.89 67.97,19.82 		"/>
		<path class="st5" d="M60.28,22.94L52.1,2.42l4.05-1.6l7.07,9.25l4.67,9.87C67.88,19.96,60.29,22.97,60.28,22.94z"/>
		<path class="st6" d="M60.3,23.01L52.08,2.43l4.07-1.6l7.17,9.43l4.5,9.81C67.79,20.11,60.32,23.05,60.3,23.01z"/>
		<path class="st7" d="M60.32,23.07L52.06,2.44l4.09-1.6l7.26,9.6l4.32,9.75C67.7,20.26,60.35,23.14,60.32,23.07z"/>
		<path class="st8" d="M60.34,23.13l-8.3-20.68l4.11-1.59l7.36,9.78l4.15,9.69C67.61,20.4,60.38,23.22,60.34,23.13z"/>
		<path class="st9" d="M60.36,23.19L52.03,2.45l4.13-1.59l7.45,9.95l3.98,9.63C67.52,20.55,60.41,23.31,60.36,23.19z"/>
		<path class="st10" d="M60.38,23.25L52.01,2.46l4.15-1.59L63.71,11l3.8,9.57C67.43,20.7,60.44,23.39,60.38,23.25z"/>
		<path class="st11" d="M60.4,23.31L51.99,2.47l4.18-1.59l7.64,10.31l3.63,9.51C67.35,20.85,60.47,23.48,60.4,23.31z"/>
		<path class="st12" d="M60.42,23.37l-8.45-20.9l4.2-1.59l7.74,10.48l3.46,9.45C67.26,20.99,60.5,23.56,60.42,23.37z"/>
		<path class="st13" d="M60.44,23.44L51.95,2.48l4.22-1.58L64,11.55l3.28,9.39C67.17,21.14,60.53,23.65,60.44,23.44z"/>
		<path class="st14" d="M60.46,23.5L51.93,2.49l4.24-1.58l7.93,10.83l3.11,9.33C67.08,21.29,60.56,23.73,60.46,23.5z"/>
		<path class="st15" d="M60.48,23.56L51.91,2.5l4.26-1.58l8.02,11.01l2.94,9.27C66.99,21.43,60.59,23.82,60.48,23.56z"/>
		<path class="st16" d="M60.5,23.62L51.9,2.5l4.28-1.58l8.11,11.18l2.76,9.21C66.9,21.58,60.62,23.9,60.5,23.62z"/>
		<path class="st17" d="M60.52,23.68L51.88,2.51l4.3-1.58l8.21,11.36l2.59,9.15C66.81,21.73,60.65,23.99,60.52,23.68z"/>
		<path class="st18" d="M60.54,23.74L51.86,2.52l4.33-1.58l8.3,11.54l2.42,9.09C66.73,21.87,60.68,24.07,60.54,23.74z"/>
		<path class="st19" d="M60.56,23.81L51.84,2.53l4.35-1.57l8.4,11.71l2.24,9.03C66.64,22.02,60.71,24.16,60.56,23.81z"/>
		<path class="st20" d="M60.58,23.87L51.82,2.53l4.37-1.57l8.49,11.89l2.07,8.97C66.55,22.17,60.74,24.24,60.58,23.87z"/>
		<path class="st21" d="M60.6,23.93L51.8,2.54l4.39-1.57l8.59,12.06l1.9,8.91C66.46,22.31,60.77,24.33,60.6,23.93z"/>
		<path class="st22" d="M60.62,23.99L51.78,2.55l4.41-1.57l8.68,12.24l1.72,8.85C66.37,22.46,60.8,24.41,60.62,23.99z"/>
		<path class="st23" d="M60.64,24.05l-8.88-21.5l4.43-1.57l8.78,12.41l1.55,8.79C66.28,22.61,60.83,24.5,60.64,24.05z"/>
		<path class="st24" d="M60.66,24.11L51.75,2.56L56.2,1l8.87,12.59l1.38,8.73C66.19,22.76,60.86,24.58,60.66,24.11z"/>
		<path class="st25" d="M60.68,24.18l-8.95-21.6l4.48-1.56l8.96,12.77l1.21,8.67C66.11,22.9,60.89,24.67,60.68,24.18z"/>
		<path class="st26" d="M60.7,24.24L51.71,2.58l4.5-1.56l9.06,12.94l1.03,8.61C66.02,23.05,60.92,24.75,60.7,24.24z"/>
		<path class="st27" d="M60.72,24.3L51.69,2.59l4.52-1.56l9.15,13.12l0.86,8.55C65.93,23.2,60.95,24.84,60.72,24.3z"/>
		<path class="st28" d="M60.74,24.36L51.67,2.59l4.54-1.56l9.25,13.29l0.69,8.49C65.84,23.34,60.98,24.92,60.74,24.36z"/>
		<path class="st29" d="M60.76,24.42L51.65,2.6l4.56-1.56l9.34,13.47l0.51,8.43C65.75,23.49,61.01,25.01,60.76,24.42z"/>
		<path class="st30" d="M60.78,24.48L51.63,2.61l4.59-1.55l9.44,13.64L66,23.06C65.66,23.64,61.04,25.09,60.78,24.48z"/>
		<path class="st31" d="M60.8,24.54L51.62,2.62l4.61-1.55l9.53,13.82l0.17,8.31C65.57,23.78,61.07,25.18,60.8,24.54z"/>
		<path class="st32" d="M60.82,24.61L51.6,2.62l4.63-1.55l9.63,13.99l-0.01,8.25C65.49,23.93,61.1,25.26,60.82,24.61z"/>
		<path class="st33" d="M60.84,24.67L51.58,2.63l4.65-1.55l9.72,14.17l-0.18,8.19C65.4,24.08,61.13,25.35,60.84,24.67z"/>
		<path class="st34" d="M60.86,24.73l-9.3-22.09l4.67-1.55l9.82,14.35l-0.35,8.13C65.31,24.22,61.16,25.43,60.86,24.73z"/>
		<path class="st35" d="M60.88,24.79L51.54,2.64l4.69-1.54l9.91,14.52l-0.53,8.07C65.22,24.37,61.19,25.52,60.88,24.79z"/>
		<path class="st36" d="M60.9,24.85l-9.38-22.2l4.71-1.54l10,14.7l-0.7,8.01C65.13,24.52,61.23,25.6,60.9,24.85z"/>
		<path class="st37" d="M60.92,24.91L51.5,2.66l4.74-1.54l10.1,14.87l-0.87,7.95C65.04,24.67,61.26,25.69,60.92,24.91z"/>
		<path class="st38" d="M60.94,24.98L51.49,2.67l4.76-1.54l10.19,15.05l-1.05,7.89C64.95,24.81,61.29,25.77,60.94,24.98z"/>
		<path class="st39" d="M60.96,25.04L51.47,2.67l4.78-1.54l10.29,15.22l-1.22,7.83C64.87,24.96,61.32,25.85,60.96,25.04z"/>
		<path class="st40" d="M60.98,25.1L51.45,2.68l4.8-1.54l10.38,15.4l-1.39,7.77C64.78,25.11,61.35,25.94,60.98,25.1z"/>
		<path class="st41" d="M61,25.16L51.43,2.69l4.82-1.53l10.48,15.58l-1.57,7.71C64.69,25.25,61.38,26.02,61,25.16z"/>
		<path class="st42" d="M61.02,25.22L51.41,2.7l4.84-1.53l10.57,15.75l-1.74,7.65C64.6,25.4,61.41,26.11,61.02,25.22z"/>
		<path class="st43" d="M61.04,25.28L51.39,2.7l4.87-1.53L66.92,17.1l-1.91,7.59C64.51,25.55,61.44,26.19,61.04,25.28z"/>
		<path class="st44" d="M61.06,25.35L51.37,2.71l4.89-1.53l10.76,16.1l-2.09,7.53C64.42,25.69,61.47,26.28,61.06,25.35z"/>
		<path class="st45" d="M61.08,25.41L51.36,2.72l4.91-1.53l10.86,16.28l-2.26,7.47C64.33,25.84,61.5,26.36,61.08,25.41z"/>
		<path class="st46" d="M61.1,25.47L51.34,2.73l4.93-1.52l10.95,16.45l-2.43,7.41C64.25,25.99,61.53,26.45,61.1,25.47z"/>
		<path class="st47" d="M61.12,25.53l-9.8-22.8l4.95-1.52l11.04,16.63l-2.61,7.35C64.16,26.13,61.56,26.53,61.12,25.53z"/>
		<path class="st48" d="M61.14,25.59L51.3,2.74l4.97-1.52l11.14,16.81l-2.78,7.29C64.07,26.28,61.59,26.62,61.14,25.59z"/>
		<path class="st49" d="M61.16,25.65l-9.88-22.9l5-1.52l11.23,16.98l-2.95,7.23C63.98,26.43,61.62,26.7,61.16,25.65z"/>
		<path class="st50" d="M61.18,25.71L51.26,2.76l5.02-1.52L67.61,18.4l-3.13,7.17C63.89,26.58,61.65,26.79,61.18,25.71z"/>
		<path class="st51" d="M61.2,25.78L51.24,2.76l5.04-1.51L67.7,18.58l-3.3,7.11C63.8,26.72,61.68,26.87,61.2,25.78z"/>
		<path class="st52" d="M61.22,25.84L51.23,2.77l5.06-1.51L67.8,18.77l-3.47,7.05C63.72,26.87,61.71,26.96,61.22,25.84z"/>
		<path class="st53" d="M61.24,25.9L51.21,2.78l5.08-1.51L67.9,18.95l-3.65,6.99C63.63,27.02,61.74,27.04,61.24,25.9z"/>
		<path class="st54" d="M61.26,25.96L51.19,2.79l5.1-1.51L68,19.14l-3.82,6.93C63.54,27.16,61.77,27.13,61.26,25.96z"/>
		<path d="M61.28,26.02L51.17,2.79l5.12-1.51l11.8,18.04l-3.99,6.87C63.45,27.31,61.8,27.21,61.28,26.02z"/>
	</g>
	<path class="st1" d="M47.66,5.15l12.21,20.68c0.99,1.68,3.42,1.68,4.41,0l2.26-3.84c0.48-0.81,0.47-1.81-0.01-2.61L56.48,2.53
		c-0.46-0.77-1.3-1.25-2.2-1.25h-4.42C47.89,1.29,46.66,3.44,47.66,5.15z"/>
</g>
</svg>
